<?xml version="1.0" encoding="utf-8"?>
<!-- Generator: Adobe Illustrator 15.0.0, SVG Export Plug-In . SVG Version: 6.00 Build 0)  -->
<!DOCTYPE svg PUBLIC "-//W3C//DTD SVG 1.1//EN" "http://www.w3.org/Graphics/SVG/1.1/DTD/svg11.dtd">
<svg version="1.1" id="Layer_1" xmlns="http://www.w3.org/2000/svg" xmlns:xlink="http://www.w3.org/1999/xlink" x="0px" y="0px"
	 width="803.959px" height="794.96px" viewBox="0 0 803.959 794.96" enable-background="new 0 0 803.959 794.96"
	 xml:space="preserve">
<path fill="#DBB64F" d="M790.26,393.286c0,40.025-37.096,73.703-48.822,109.818c-12.152,37.432-2.355,86.399-25.031,117.557
	c-22.9,31.468-72.652,37.176-104.121,60.078c-31.158,22.675-51.836,68.356-89.268,80.51
	c-36.117,11.728-79.531-12.692-119.557-12.692s-83.439,24.42-119.557,12.693c-37.43-12.154-58.109-57.835-89.268-80.511
	c-31.469-22.902-81.221-28.609-104.121-60.078c-22.676-31.156-12.879-80.124-25.033-117.556
	c-11.727-36.116-48.82-69.793-48.82-109.819c0-40.025,37.094-73.703,48.82-109.819c12.154-37.433,2.357-86.398,25.033-117.556
	c22.9-31.469,72.652-37.175,104.121-60.077c31.158-22.675,51.838-68.357,89.268-80.512c36.117-11.727,79.531,12.693,119.557,12.693
	s83.439-24.419,119.557-12.693c37.432,12.154,58.109,57.836,89.268,80.512c31.467,22.902,81.219,28.609,104.121,60.078
	c22.674,31.157,12.877,80.122,25.031,117.554C753.165,319.583,790.26,353.261,790.26,393.286z"/>
<path fill="#EDC951" d="M764.012,393.287c0,37.309-34.578,68.701-45.509,102.366c-11.329,34.891-2.197,80.535-23.334,109.579
	c-21.348,29.332-67.724,34.652-97.056,56c-29.043,21.137-48.318,63.719-83.209,75.047c-33.665,10.932-74.134-11.831-111.443-11.831
	c-37.309,0-77.777,22.763-111.442,11.832c-34.892-11.329-54.166-53.91-83.21-75.047c-29.334-21.349-75.708-26.668-97.056-56.001
	c-21.137-29.043-12.005-74.687-23.334-109.577c-10.931-33.666-45.509-65.059-45.509-102.368s34.578-68.702,45.509-102.368
	c11.329-34.891,2.197-80.534,23.334-109.578c21.348-29.333,67.722-34.653,97.056-56c29.042-21.136,48.316-63.718,83.21-75.048
	c33.665-10.931,74.133,11.832,111.442,11.832s77.778-22.762,111.443-11.832c34.891,11.33,54.166,53.912,83.209,75.048
	c29.332,21.348,75.708,26.667,97.056,56c21.137,29.044,12.005,74.688,23.334,109.579
	C729.434,324.586,764.012,355.978,764.012,393.287z"/>
<rect x="180.389" y="292.89" fill="#00A0B0" width="208" height="242"/>
<rect x="417.389" y="365.89" fill="#00A0B0" width="203" height="169"/>
<rect x="417.389" y="290.89" fill="#666666" width="203" height="75"/>
<text transform="matrix(1 0 0 1 207.2964 505.8545)" fill="#03878E" font-family="'Helvetica-Bold'" font-size="61.3379">100%</text>
<text transform="matrix(1 0 0 1 454.2944 511.4287)" fill="#03878E" font-family="'Helvetica-Bold'" font-size="61.3379">80%</text>
<text transform="matrix(1 0 0 1 225.7544 603.9111)" fill="#DBB64F" font-family="'Helvetica-Bold'" font-size="45">YOU</text>
<text transform="matrix(1 0 0 1 426.5493 603.9111)" fill="#DBB64F" font-family="'Helvetica-Bold'" font-size="45">OTHERS</text>
<text transform="matrix(1 0 0 1 160.3877 256.6177)" fill="#DBB64F" font-family="'Helvetica-Oblique'" font-size="65.2506">HOW YOU DID...</text>
<text transform="matrix(1 0 0 1 206.2964 504.0674)" fill="#FFFFFF" font-family="'Helvetica-Bold'" font-size="61.3379">100%</text>
<text transform="matrix(1 0 0 1 453.2944 509.6416)" fill="#FFFFFF" font-family="'Helvetica-Bold'" font-size="61.3379">80%</text>
<text transform="matrix(1 0 0 1 154.7041 254.605)" fill="#FFFFFF" font-family="'Helvetica-Oblique'" font-size="65.2506">HOW YOU DID...</text>
<text transform="matrix(1 0 0 1 223.7544 603.6416)" fill="#FFFFFF" font-family="'Helvetica-Bold'" font-size="45">YOU</text>
<text transform="matrix(1 0 0 1 424.5493 603.6416)" fill="#FFFFFF" font-family="'Helvetica-Bold'" font-size="45">OTHERS</text>
</svg>
