<?xml version="1.0" encoding="utf-8"?>
<!-- Generator: Adobe Illustrator 15.0.0, SVG Export Plug-In . SVG Version: 6.00 Build 0)  -->
<!DOCTYPE svg PUBLIC "-//W3C//DTD SVG 1.1//EN" "http://www.w3.org/Graphics/SVG/1.1/DTD/svg11.dtd">
<svg version="1.1" id="Layer_1" xmlns="http://www.w3.org/2000/svg" xmlns:xlink="http://www.w3.org/1999/xlink" x="0px" y="0px"
	 width="260px" height="260px" viewBox="0 0 260 260" enable-background="new 0 0 260 260" xml:space="preserve">
<path fill="#DBB64F" d="M246.932,129.964c0,12.141-11.252,22.356-14.809,33.312c-3.687,11.354-0.715,26.208-7.594,35.659
	c-6.946,9.545-22.037,11.276-31.583,18.224c-9.451,6.878-15.724,20.734-27.078,24.422c-10.956,3.557-24.124-3.851-36.266-3.851
	s-25.31,7.407-36.266,3.851c-11.354-3.688-17.626-17.544-27.078-24.422c-9.546-6.947-24.637-8.678-31.583-18.224
	c-6.879-9.451-3.906-24.305-7.594-35.659c-3.557-10.955-14.809-21.17-14.809-33.312s11.252-22.356,14.809-33.312
	c3.688-11.355,0.715-26.208,7.594-35.659c6.946-9.546,22.037-11.276,31.583-18.224c9.452-6.878,15.725-20.735,27.078-24.422
	c10.956-3.557,24.124,3.851,36.266,3.851s25.31-7.407,36.266-3.851c11.354,3.687,17.627,17.544,27.078,24.422
	c9.545,6.947,24.636,8.678,31.583,18.224c6.878,9.451,3.906,24.304,7.594,35.658C235.68,107.607,246.932,117.822,246.932,129.964z"
	/>
<path fill="#EDC951" d="M238.971,129.964c0,11.317-10.489,20.84-13.805,31.052c-3.438,10.583-0.667,24.429-7.078,33.238
	c-6.476,8.897-20.543,10.512-29.44,16.987c-8.81,6.411-14.657,19.328-25.24,22.765c-10.212,3.315-22.487-3.589-33.805-3.589
	s-23.593,6.904-33.804,3.589c-10.584-3.437-16.431-16.353-25.241-22.765c-8.897-6.476-22.965-8.089-29.44-16.987
	c-6.411-8.81-3.641-22.654-7.078-33.238c-3.314-10.212-13.804-19.734-13.804-31.052s10.489-20.84,13.804-31.052
	c3.438-10.583,0.667-24.429,7.078-33.238c6.476-8.898,20.543-10.512,29.44-16.987c8.81-6.411,14.656-19.328,25.241-22.765
	c10.211-3.315,22.486,3.589,33.804,3.589s23.593-6.904,33.805-3.589c10.583,3.437,16.431,16.354,25.24,22.765
	c8.897,6.476,22.965,8.089,29.44,16.987c6.411,8.81,3.641,22.655,7.078,33.238C228.481,109.125,238.971,118.646,238.971,129.964z"/>
<text transform="matrix(1 0 0 1 51.918 121.4175)"><tspan x="0" y="0" fill="#DBB64F" font-family="'Helvetica-BoldOblique'" font-size="36.0299">SEE THE</tspan><tspan x="-6.993" y="38" fill="#DBB64F" font-family="'Helvetica-BoldOblique'" font-size="36.0299">RESULTS</tspan></text>
<text transform="matrix(1 0 0 1 50.585 120.4175)"><tspan x="0" y="0" fill="#FFFFFF" font-family="'Helvetica-BoldOblique'" font-size="36.0299">SEE THE</tspan><tspan x="-6.993" y="38" fill="#FFFFFF" font-family="'Helvetica-BoldOblique'" font-size="36.0299">RESULTS</tspan></text>
</svg>
