<?xml version="1.0" encoding="utf-8"?>
<!-- Generator: Adobe Illustrator 15.0.0, SVG Export Plug-In . SVG Version: 6.00 Build 0)  -->
<!DOCTYPE svg PUBLIC "-//W3C//DTD SVG 1.1//EN" "http://www.w3.org/Graphics/SVG/1.1/DTD/svg11.dtd">
<svg version="1.1" id="Layer_1" xmlns="http://www.w3.org/2000/svg" xmlns:xlink="http://www.w3.org/1999/xlink" x="0px" y="0px"
	 width="138.275px" height="174.862px" viewBox="0 0 138.275 174.862" enable-background="new 0 0 138.275 174.862"
	 xml:space="preserve">
<g>
	<path fill="#FFFFFF" d="M134.519,8.784c-0.013-0.321-0.045-0.64-0.1-0.96c-0.019-0.12-0.033-0.24-0.059-0.355
		c-0.088-0.391-0.197-0.775-0.357-1.152c0-0.003-0.004-0.006-0.004-0.013c-0.026-0.065-0.067-0.124-0.096-0.189
		c-0.145-0.312-0.308-0.617-0.491-0.901c-0.069-0.107-0.147-0.21-0.222-0.314c-0.175-0.239-0.358-0.464-0.559-0.678
		c-0.085-0.09-0.166-0.18-0.256-0.264c-0.266-0.255-0.552-0.494-0.851-0.706c-0.035-0.02-0.059-0.046-0.089-0.067
		c-0.332-0.223-0.686-0.408-1.058-0.571c-0.113-0.052-0.233-0.094-0.351-0.14c-0.279-0.105-0.561-0.195-0.854-0.263
		c-0.122-0.032-0.248-0.064-0.377-0.085c-0.412-0.075-0.829-0.128-1.261-0.128H97.206c-3.866,0-6.999,3.134-6.999,7
		c0,3.867,3.133,7.001,6.999,7.001h13.432L83.484,43.155c-8.348-9.473-20.524-15.49-34.112-15.49
		c-25.087,0-45.498,20.416-45.498,45.5c0,22.701,16.73,41.52,38.5,44.904v16.932H29.54c-3.863,0-6.999,3.13-6.999,7
		c0,3.863,3.136,6.999,6.999,6.999h12.834v14.001c0,3.863,3.136,6.999,7.001,6.999c3.866,0,7.001-3.136,7.001-6.999v-14.003h15.165
		c3.867,0,7.001-3.136,7.001-6.999c0-3.871-3.134-7-7.001-7H56.374v-16.932c21.77-3.385,38.498-22.202,38.498-44.902
		c0-6.361-1.32-12.416-3.686-17.916l29.354-29.354v13.434c0,3.869,3.137,7.002,7,7.002c3.867,0,7-3.137,7-7.002V8.999
		C134.54,8.925,134.52,8.858,134.519,8.784z M49.372,104.665c-17.367,0-31.498-14.131-31.498-31.5c0-17.371,14.131-31.5,31.498-31.5
		c17.37,0,31.5,14.129,31.5,31.5C80.872,90.534,66.742,104.665,49.372,104.665z"/>
	<rect x="27.208" y="76.666" fill="#FFFFFF" width="44.33" height="9.334"/>
	<rect x="27.208" y="62.666" fill="#FFFFFF" width="44.33" height="9.335"/>
</g>
</svg>
