<?xml version="1.0" encoding="utf-8"?>
<!-- Generator: Adobe Illustrator 15.0.0, SVG Export Plug-In . SVG Version: 6.00 Build 0)  -->
<!DOCTYPE svg PUBLIC "-//W3C//DTD SVG 1.1//EN" "http://www.w3.org/Graphics/SVG/1.1/DTD/svg11.dtd">
<svg version="1.1" xmlns="http://www.w3.org/2000/svg" xmlns:xlink="http://www.w3.org/1999/xlink" x="0px" y="0px" width="224px"
	 height="78px" viewBox="0 0 224 78" enable-background="new 0 0 224 78" xml:space="preserve">
<g id="Layer_2" display="none">
	<rect x="-11" y="-9" display="inline" fill="#00A0B0" width="248" height="94"/>
</g>
<g id="boards" display="none">
	<path display="inline" fill="#EDC951" d="M108.497,34.035v3.609h3.208v2.738l3.737,0.002v-2.74h2.957v-3.609h-2.957v-5.57
		c7.002-0.918,12.427-6.92,12.428-14.17C127.869,6.412,121.455,0,113.572,0c-7.882,0-14.295,6.412-14.295,14.295
		c0,7.25,5.425,13.252,12.427,14.172v5.568H108.497z M103.014,14.295c0-5.822,4.736-10.557,10.558-10.557
		c5.822,0,10.559,4.736,10.561,10.557c-0.002,5.822-4.738,10.561-10.561,10.561C107.75,24.855,103.014,20.117,103.014,14.295z"/>
	<path display="inline" fill="#FFFFFF" d="M36.02,12.12l6.388-5.156l2.886,3.577L47.74-0.33L36.596-0.237l2.888,3.578l-6.389,5.155
		C26.724,2.426,16.658,1.86,9.627,7.533c-7.645,6.17-8.845,17.407-2.676,25.051c6.169,7.646,17.407,8.846,25.051,2.677
		C39.033,29.588,40.608,19.629,36.02,12.12z M10.575,29.66c-4.556-5.646-3.67-13.945,1.976-18.503
		c5.646-4.557,13.947-3.671,18.504,1.976c4.556,5.648,3.669,13.946-1.978,18.503C23.432,36.192,15.131,35.307,10.575,29.66z"/>
	<path display="inline" fill="#FFFFFF" d="M80.12,12.12l6.388-5.156l2.886,3.577L91.839-0.33L80.696-0.237l2.888,3.578l-6.389,5.155
		c-6.371-6.07-16.437-6.636-23.467-0.963c-7.645,6.17-8.845,17.407-2.676,25.051c6.169,7.646,17.407,8.846,25.051,2.677
		C83.133,29.588,84.708,19.629,80.12,12.12z M54.675,29.66c-4.556-5.646-3.67-13.945,1.976-18.503
		c5.646-4.557,13.947-3.671,18.504,1.976c4.556,5.648,3.669,13.946-1.978,18.503C67.531,36.192,59.231,35.307,54.675,29.66z"/>
	<path display="inline" fill="#FFFFFF" d="M168.318,12.12l6.389-5.156l2.886,3.577l2.446-10.871l-11.145,0.093l2.889,3.578
		l-6.39,5.155c-6.37-6.07-16.437-6.636-23.468-0.963c-7.645,6.17-8.844,17.407-2.676,25.051c6.17,7.646,17.408,8.846,25.052,2.677
		C171.332,29.588,172.906,19.629,168.318,12.12z M142.874,29.66c-4.556-5.646-3.671-13.945,1.976-18.503
		c5.646-4.557,13.947-3.671,18.504,1.976c4.557,5.648,3.67,13.946-1.977,18.503S147.43,35.307,142.874,29.66z"/>
	<path display="inline" fill="#FFFFFF" d="M212.418,12.12l6.389-5.156l2.886,3.577l2.446-10.871l-11.145,0.093l2.889,3.578
		l-6.39,5.155c-6.37-6.07-16.437-6.636-23.468-0.963c-7.645,6.17-8.844,17.407-2.676,25.051c6.17,7.646,17.408,8.846,25.052,2.677
		C215.432,29.588,217.006,19.629,212.418,12.12z M186.974,29.66c-4.556-5.646-3.671-13.945,1.976-18.503
		c5.646-4.557,13.947-3.671,18.504,1.976c4.557,5.648,3.67,13.946-1.977,18.503S191.529,35.307,186.974,29.66z"/>
	<path display="inline" fill="#FFFFFF" d="M34.874,50.654l6.388-5.156l2.886,3.577l2.446-10.871L35.45,38.297l2.888,3.578
		l-6.389,5.155c-6.371-6.07-16.437-6.636-23.467-0.963c-7.645,6.17-8.845,17.407-2.676,25.051
		c6.169,7.646,17.407,8.846,25.051,2.677C37.887,68.122,39.462,58.163,34.874,50.654z M9.429,68.194
		c-4.556-5.646-3.67-13.945,1.976-18.503c5.646-4.557,13.947-3.671,18.504,1.976c4.556,5.648,3.669,13.946-1.978,18.503
		C22.286,74.727,13.985,73.841,9.429,68.194z"/>
	<path display="inline" fill="#FFFFFF" d="M78.974,50.654l6.388-5.156l2.886,3.577l2.446-10.871L79.55,38.297l2.888,3.578
		l-6.389,5.155c-6.371-6.07-16.437-6.636-23.467-0.963c-7.645,6.17-8.845,17.407-2.676,25.051
		c6.169,7.646,17.407,8.846,25.051,2.677C81.987,68.122,83.562,58.163,78.974,50.654z M53.529,68.194
		c-4.556-5.646-3.67-13.945,1.976-18.503c5.646-4.557,13.947-3.671,18.504,1.976c4.556,5.648,3.669,13.946-1.978,18.503
		C66.385,74.727,58.085,73.841,53.529,68.194z"/>
	<path display="inline" fill="#FFFFFF" d="M167.173,50.654l6.388-5.156l2.887,3.577l2.445-10.871l-11.144,0.093l2.888,3.578
		l-6.389,5.155c-6.371-6.07-16.438-6.636-23.468-0.963c-7.645,6.17-8.845,17.407-2.676,25.051
		c6.169,7.646,17.407,8.846,25.052,2.677C170.186,68.122,171.761,58.163,167.173,50.654z M141.729,68.194
		c-4.557-5.646-3.671-13.945,1.976-18.503c5.646-4.557,13.946-3.671,18.504,1.976c4.556,5.648,3.669,13.946-1.978,18.503
		S146.284,73.841,141.729,68.194z"/>
	<path display="inline" fill="#FFFFFF" d="M211.272,50.654l6.388-5.156l2.887,3.577l2.445-10.871l-11.144,0.093l2.888,3.578
		l-6.389,5.155c-6.371-6.07-16.438-6.636-23.468-0.963c-7.645,6.17-8.845,17.407-2.676,25.051
		c6.169,7.646,17.407,8.846,25.052,2.677C214.285,68.122,215.86,58.163,211.272,50.654z M185.828,68.194
		c-4.557-5.646-3.671-13.945,1.976-18.503c5.646-4.557,13.946-3.671,18.504,1.976c4.556,5.648,3.669,13.946-1.978,18.503
		S190.384,73.841,185.828,68.194z"/>
	<path display="inline" fill="#FFFFFF" d="M124.219,50.654l6.389-5.156l2.886,3.577l2.446-10.871l-11.145,0.093l2.889,3.578
		l-6.39,5.155c-6.37-6.07-16.437-6.636-23.467-0.963c-7.645,6.17-8.845,17.407-2.676,25.051c6.169,7.646,17.407,8.846,25.051,2.677
		C127.232,68.122,128.807,58.163,124.219,50.654z M98.774,68.194c-4.556-5.646-3.67-13.945,1.976-18.503
		c5.646-4.557,13.947-3.671,18.503,1.976c4.557,5.648,3.67,13.946-1.977,18.503S103.331,73.841,98.774,68.194z"/>
</g>
<g id="Layer_3" display="none">
	<path display="inline" fill="#FFFFFF" d="M93.401,5.711c0,0-9.235,10.247-12.669,20.125c-2.908,8.371-1.949,17.742-3.308,20.262
		c-0.824,1.531-1.167,2.5-3.675,3.918c-2.438,1.533-3.452,1.377-5.189,1.375c-2.862,0-10.658-5.289-19.407-6.699
		c-10.323-1.664-23.727,1.605-23.727,1.605s-0.673-1.457-2.284-3.737c-2.157-3.054-9.001-15.459-11.132-19.03
		c-2.133-3.57-4.267-5.469-4.933-4.905c-0.664,0.564-0.003,1.672-1.506,2.235c-1.5,0.563-2.063,0.983-1.084,1.817
		c2.552,2.318,5.838,6.702,9.366,12.611s8.535,11.452,9.96,14.442c1.787,3.756,3.97,9.098,6.175,13.105
		c1.681,3.057,5.881,9.635,10.511,12.324c4.571,2.656,12.942,4.965,22.277-1.777c8.955-6.469,8.127-15.393,13.735-18.742
		c5.609-3.35,13.074,1.615,23.015-3.199c10.363-5.02,12.305-13.486,12.134-18.769c-0.173-5.352-3.971-12.169-5.864-15.1
		c-2.481-3.843-6.149-8.297-8.605-11.653c-0.989-1.352-2.119-3.819-3.449-6.691h-4.055c0.665,1.129,1.194,2.067,1.509,2.699
		C92.44,4.428,93.401,5.711,93.401,5.711z"/>
	<g display="inline">
		<path fill="#EDC951" d="M164.842,52.403l-3.689,7.203l-0.467-6.869l-2.336,6.58c0.4-0.932-1.201-5.312-0.756-7.98
			s-0.777-7.314-0.777-7.314s-0.268,1.045-0.668,2.289c-0.4,1.246-0.533,3.691-0.533,5.092c0,1.402-1.156,5.227-1.156,5.227
			c-1.557-1.357-2.668-7.648-2.668-7.648c-0.021,2.557-1.488,2.957-0.6,5.691c0.887,2.734,1.49,4.713,1.49,4.713
			c-1.002-0.4-5.047-5.914-4.691-5.291c0.01,0.02,0.021,0.039,0.031,0.059c0.312,0.584,0.176,0.943,1.057,3.654
			c0.912,2.801,2.047,4.891,2.047,4.891c-1.135-1.355-5.604-4.402-5.604-4.402c1.777,4.336,6.293,9.516,6.293,9.516
			c-9.562-4.135-12.23-13.428-12.809-17.342c-0.576-3.912-1.051-5.646-1.051-5.646l3.438,5.52
			c-3.236-9.105-0.584-17.459,0.75-19.827c1.334-2.368,1.334-4.347,1.334-4.347c0.912,1.979,0.623,8.494,0.623,8.494
			s0.732-2.091,2.422-5.981c1.689-3.89,3.424-14.073,3.424-14.073l0.701,13.606c0.701-11.273,5.27-14.108,9.037-17.976
			C163.451,6.37,166.889,0,166.889,0c-1.535,2.635-0.834,11.573-0.867,13.974s1.467,8.404,1.467,8.404l2.936-5.47
			c-0.035,0.767-0.201,3.069-0.268,5.87c-0.066,2.801-2.66,11.215-2.66,11.215c1.268-1,1.904-2.421,1.904-2.421
			c0.377,2.912-2.09,10.449-2.09,10.449c3.535-2.134,4.412-10.038,4.412-10.038c3.414,14.241-3.635,21.645-3.635,21.645
			c1.434-1.436,3.803-2.301,3.803-2.301c-1.27,0.666-3.736,6.236-5.17,8.369c-1.436,2.137-2.102,1-3.469,3.137L164.842,52.403z"/>
		<path fill="#FFFFFF" d="M168.752,67.044l44.561-32.015c0.953-0.685,1.172-2.026,0.486-2.979l-0.621-0.866
			c-0.686-0.953-2.025-1.173-2.98-0.488L165.639,62.71c-0.047,0.035-0.084,0.076-0.127,0.113c0.26,1.846,1.432,3.471,3.119,4.289
			C168.672,67.089,168.713,67.071,168.752,67.044z"/>
		<path fill="#CC333F" d="M153.822,69.952c-0.201-0.197-0.422-0.523-0.555-1.057c0,0-0.018,1.283,0.705,2.711
			c1.189,2.354,2.918,4.477,5.672,4.477c3.217,0,5.82-2.604,5.82-5.822c0-0.043-0.008-0.084-0.008-0.127
			c-2.033-1.533-3.453-3.779-3.955-6.283c-0.078,0.203-0.174,0.475-0.264,0.803c-0.17,0.623-0.314,1.436-0.262,2.293
			c0,0-0.709-0.773-1.211-2.512c-0.164-0.561-0.305-1.227-0.391-2.002l-0.383,2.039l-0.24,1.275c0,0-0.273-0.301-0.502-1.148
			c-0.107-0.379-0.197-0.875-0.256-1.5l-0.48,1.74l-0.25,0.906l-0.135-0.742l-0.623-3.414l-0.139,3.852l-0.039,0.973
			c0,0-0.191-0.256-0.438-0.613c-0.342-0.514-0.783-1.238-0.875-1.725l0.24,2.354l0.139,1.361c0,0-0.305-0.246-0.629-0.715
			c-0.316-0.449-0.658-1.105-0.77-1.949c0,0-0.09,1.752,0.293,2.83c0.055,0.143,0.113,0.275,0.184,0.389
			c0,0-0.104-0.086-0.252-0.225c-0.336-0.32-0.908-0.924-1.062-1.457c0,0.107,0.021,1.121,0.832,2.156
			c0.033,0.041,0.07,0.092,0.107,0.133C155.062,70.095,154.082,70.216,153.822,69.952z"/>
	</g>
</g>
<g id="Layer_4" display="none">
	<path display="inline" fill="#FFFFFF" d="M29.413,73.213l7.501-0.045l7.502,0.045c1.028,0,1.785-0.605,2.069-1.539
		c0.126-0.842,1.75-11.703,2.267-14.812c0.387-2.309,3.11-3.363,5.145-3.615c5.98-0.881,11.574-2.281,16.673-4.203
		c0.04-2.119,0.053-4.346,0.053-6.674c0-5.533-0.901-10.804-2.584-15.57C56.666,24.928,47.772,16.087,46.599,5.043
		c-2.969-0.904-6.313-1.414-9.685-1.414c-3.373,0-6.715,0.51-9.683,1.414C26.058,16.085,17.166,24.928,5.79,26.798
		c-1.683,4.766-2.584,10.036-2.584,15.571c0,2.328,0.014,4.553,0.054,6.674c5.09,1.916,10.673,3.318,16.642,4.199
		c0,0,0.282,0.029,0.711,0.119c1.847,0.387,4.106,1.355,4.463,3.498c0.519,3.111,2.143,13.969,2.268,14.812
		C27.628,72.607,28.385,73.213,29.413,73.213L29.413,73.213z M23.63,11.264c-5.727,0.771-14.357,8.585-13.779,10.422
		c0.18,0.567,0.685,1.147,1.516,1.521C16.884,20.851,21.26,16.72,23.63,11.264L23.63,11.264z M49.247,7.669
		c0.277,1.11,0.64,2.192,1.086,3.235c3.375,1.454,6.588,3.04,9.609,4.737C56.975,12.197,53.37,9.469,49.247,7.669L49.247,7.669z
		 M4.868,56.697c4.051,1.432,8.402,2.578,12.958,3.379c4.321,1.111,4.36,2.986,4.884,6.422c0.674,0.117,1.354,0.232,2.039,0.334
		c-0.535-3.537-1.198-7.885-1.496-9.668c-0.264-1.578-3.265-2.051-3.573-2.088c-5.206-0.764-10.062-1.898-14.94-3.555
		c0.008,0.66,0.021,1.309,0.037,1.947c4.925,1.748,10.287,3.064,15.958,3.861c0.813,0.117,0.642,1.336-0.172,1.223
		c-5.576-0.783-10.866-2.066-15.75-3.766L4.868,56.697L4.868,56.697z M21.433,66.26c-0.364-2.658-0.378-4.072-3.867-4.979
		c-4.44-0.781-8.672-1.883-12.638-3.256c0.314,3.164,1.898,3.961,2.508,4.203C11.757,63.938,16.455,65.303,21.433,66.26
		L21.433,66.26z M68.901,58.025c-3.965,1.373-8.197,2.475-12.637,3.256c-3.489,0.906-3.504,2.32-3.867,4.979
		c4.978-0.957,9.675-2.322,13.996-4.031C67.005,61.986,68.587,61.189,68.901,58.025L68.901,58.025z M70.831,56.008l0.152-0.061
		c0.765-0.295,1.21,0.854,0.443,1.15l-0.63,0.242c-0.142,4.592-2.433,6.098-3.722,6.609c-5.566,2.201-11.724,3.84-18.282,4.795
		l-0.493,3.291c0,0-0.051,0.234-0.175,0.533c-0.632,1.535-1.99,2.492-3.713,2.492l-7.502-0.047l-7.49,0.047
		c-1.83,0-3.505-1.252-3.887-3.025l-0.494-3.291c-6.559-0.955-12.716-2.594-18.282-4.795c-1.291-0.512-3.581-2.018-3.724-6.609
		l-0.63-0.242c-0.766-0.297-0.322-1.445,0.445-1.15l0.151,0.061l-0.055-1.898l-0.542-0.207c-0.766-0.297-0.322-1.445,0.445-1.148
		c0.051-0.604,0.04-1.24,0.036-1.887c-0.481-0.176-0.961-0.357-1.445-0.543c-0.058-2.652-0.079-5.303-0.079-7.955
		c0-6.049,0.986-11.566,3.071-17.239c0.851-0.122,1.688-0.28,2.509-0.475c1.666-3.965,3.903-7.523,6.636-10.521
		c2.455-1.445,5.799-3.529,6.071-3.89c0.326-0.429,0.514-0.908,0.358-1.332c-0.023-0.054-0.049-0.102-0.08-0.151
		c1.651-1.054,3.406-1.95,5.257-2.674c0.141-0.79,0.246-1.599,0.31-2.427c3.78-1.238,7.438-1.879,11.421-1.879
		s7.641,0.641,11.421,1.879c0.065,0.828,0.168,1.637,0.31,2.427c8.268,3.229,14.616,9.928,18.243,18.568
		c0.821,0.194,1.658,0.353,2.511,0.475c2.086,5.673,3.073,11.191,3.073,17.239c0,2.652-0.022,5.303-0.081,7.955
		c-0.481,0.186-0.964,0.367-1.443,0.543c-0.006,0.646-0.016,1.283-0.029,1.91c0.831-0.322,1.275,0.828,0.508,1.125l-0.541,0.207
		L70.831,56.008L70.831,56.008z M51.12,66.498c0.523-3.436,0.564-5.311,4.882-6.422c4.556-0.801,8.909-1.947,12.958-3.379
		l0.058-1.91c-4.883,1.699-10.173,2.982-15.749,3.766c-0.815,0.113-0.986-1.105-0.171-1.223c5.67-0.797,11.031-2.113,15.957-3.861
		c0.015-0.639,0.028-1.287,0.037-1.947c-4.879,1.656-9.736,2.791-14.941,3.555c-0.308,0.037-3.31,0.51-3.573,2.088
		c-0.297,1.783-0.961,6.131-1.496,9.668C49.765,66.729,50.444,66.617,51.12,66.498L51.12,66.498z M15.688,26.979
		c0.759,1.232,3.299,1.59,7.639-0.557c0.546-0.144,6.157-3.055,6.562-3.48c0.32-0.339,0.577-0.74,0.624-1.148
		c0.017-0.281-0.044-0.517-0.17-0.712C23.491,21.954,18.735,24.192,15.688,26.979L15.688,26.979z M22.875,35.998h-4.17
		c0.198,4.816,2.947,4.956,4.082,5.053c0.061,0.006,0.611-0.052,0.917-0.078C23.359,39.496,23.079,37.835,22.875,35.998
		L22.875,35.998z M55.122,35.998h-4.166c-0.205,1.84-0.485,3.498-0.832,4.974c0.307,0.027,0.857,0.083,0.917,0.077
		C52.177,40.953,54.928,40.813,55.122,35.998L55.122,35.998z M29.061,48.969c0.408,0.037,0.466-0.574,0.059-0.613
		c-16.229-1.539-16.899-7.996-16.899-12.148c0-2.4,0.908-5.069,3.026-7.461c0.272-0.306-0.189-0.716-0.461-0.407
		c-2.214,2.499-3.181,5.309-3.181,7.868C11.604,40.696,12.537,47.402,29.061,48.969L29.061,48.969z M33.222,21.115
		c-0.41,0.027-0.369,0.642,0.041,0.616c1.08-0.072,2.207-0.111,3.383-0.117h0.54c2.417,0.01,4.624,0.167,6.637,0.443
		c13.1,1.801,17.788,8.706,17.788,14.15c0,4.174-0.697,10.687-17.194,12.173c-0.409,0.037-0.354,0.652,0.055,0.615
		c16.791-1.514,17.756-8.27,17.756-12.789c0-5.858-5.032-12.934-18.323-14.761c-2.036-0.281-4.271-0.438-6.718-0.449h-0.542
		C35.454,21.002,34.313,21.043,33.222,21.115L33.222,21.115z M25.534,44.191c4.278,0.73,7.63,2.822,7.63,4.857
		c0,0.035-0.02,0.256-0.042,0.492c1.198,0.047,2.461,0.072,3.792,0.072c1.282,0,2.495-0.023,3.652-0.064
		c-0.022-0.24-0.041-0.465-0.041-0.5c0-2.062,3.443-4.188,7.804-4.887c0.083-0.396,0.128-0.791,0.128-1.186
		c0-0.707-0.032-2.054-0.021-3.104c-0.881,0.595-1.865,1.046-2.922,1.327c1.099-0.762,2.073-1.715,2.89-2.816
		c0.672-0.947,1.196-2.069,1.364-3.217l0.035-0.284c0.298-3.236-2.398-6.556-12.877-6.556c-1.307,0-2.494,0.053-3.568,0.148
		c0.082-0.169,0.139-0.341,0.156-0.516c1.692-8.787-12.459,1.401-12.803,3.821c-0.179,1.259,0.645,2.858,3.341,2.226
		c-0.026,0.293-0.023,0.585,0.004,0.876l0.034,0.286c0.167,1.146,0.693,2.269,1.363,3.218c0.817,1.099,1.793,2.051,2.89,2.813
		c-1.056-0.279-2.041-0.73-2.922-1.327c0.01,1.05-0.02,2.397-0.02,3.104C25.401,43.377,25.448,43.785,25.534,44.191L25.534,44.191z
		 M63.765,36.208c0,6.332-2.331,14.638-26.851,14.638c-24.521,0-26.85-8.307-26.85-14.638c0-8.021,7.856-16.666,26.576-16.749h0.55
		C55.909,19.542,63.765,28.187,63.765,36.208L63.765,36.208z M32.321,45.754c0.165-0.395,1.287-1.129,2.479-1.316
		c1.317-0.207,1.921,0.068,2.163,0.379c0.24-0.311,0.845-0.586,2.161-0.379c1.212,0.189,2.351,0.945,2.489,1.336
		c-1.361-0.375-2.963-0.59-4.683-0.59C35.244,45.184,33.666,45.391,32.321,45.754L32.321,45.754z M40.342,46.512
		c-0.472,0.848-1.803,1.457-3.371,1.457c-1.556,0-2.877-0.602-3.358-1.439c0.85,0.307,2.031,0.496,3.338,0.496
		C38.283,47.025,39.488,46.828,40.342,46.512L40.342,46.512z M43.227,34.084c1.713,0.283,2.003,0.789,2.003,0.789l-5.151,0.101
		c0.077-0.087,0.239-0.334,0.599-0.554c-1.812,0.127-2.502-1.282-2.502-1.282s0.926,0.553,2.302,0.101
		c1.801-0.597,1.023-0.37,3.023-1.059c2.236-0.771,3.762,2.437,3.762,2.437s-0.531-0.719-1.427-1.008
		c-1.395-0.451-1.868-0.082-3.452,0.411C42.636,34.023,42.915,34.042,43.227,34.084L43.227,34.084z M35.647,33.138
		c0,0-0.692,1.409-2.503,1.282c0.358,0.222,0.521,0.469,0.598,0.554l-5.151-0.1c0,0,0.289-0.507,2.003-0.788
		c0.311-0.044,0.59-0.063,0.842-0.065c-1.582-0.494-2.056-0.861-3.451-0.412c-0.896,0.29-1.428,1.008-1.428,1.008
		s1.528-3.206,3.763-2.437c2,0.689,1.223,0.463,3.025,1.059C34.72,33.692,35.647,33.138,35.647,33.138L35.647,33.138z M7.125,36.934
		c0-0.835,0.504-1.513,1.124-1.513c0.621,0,1.125,0.678,1.125,1.513c0,0.834-0.503,1.51-1.125,1.51
		C7.628,38.444,7.125,37.771,7.125,36.934L7.125,36.934z M27.866,16.617c1.791-2.73,3.136-5.77,3.927-9.032
		c1.574-0.281,3.218-0.426,4.93-0.426h0.384c1.713,0,3.357,0.145,4.928,0.426c0.76,3.131,2.029,6.055,3.713,8.698
		c-1.647-1.833-2.892-3.858-3.64-6.024c-1.582-0.196-3.235-0.299-4.955-0.299h-0.387c-1.721,0-3.373,0.103-4.953,0.299
		C31.018,12.554,29.666,14.697,27.866,16.617L27.866,16.617z M64.61,36.934c0-0.835,0.505-1.513,1.124-1.513
		c0.623,0,1.126,0.678,1.126,1.513c0,0.834-0.504,1.51-1.126,1.51C65.115,38.444,64.61,37.771,64.61,36.934L64.61,36.934z
		 M33.069,68.055c0,0-0.865,0.018-1.037-1.008c-0.539-3.883-1.312-8.934-1.648-10.947c-0.341-2.049-0.731-3.428-1.593-4.381
		c2.411,0.234,5.108,0.357,8.123,0.357c3.017,0,5.711-0.123,8.125-0.357c-0.862,0.953-1.253,2.334-1.593,4.381
		c-0.335,2.014-1.11,7.064-1.648,10.947c-0.172,1.027-1.037,1.008-1.037,1.008H33.069L33.069,68.055z M35.405,57.145v1.107
		c0,0.342,0.276,0.619,0.616,0.619h1.833c0.341,0,0.617-0.277,0.617-0.619v-1.107c0-0.342-0.276-0.617-0.617-0.617h-1.833
		C35.681,56.527,35.405,56.803,35.405,57.145L35.405,57.145z M39.535,53.73v1.111c0,0.34,0.275,0.617,0.616,0.617h1.833
		c0.341,0,0.616-0.277,0.616-0.617V53.73c0-0.34-0.275-0.615-0.616-0.615h-1.833C39.81,53.115,39.535,53.391,39.535,53.73
		L39.535,53.73z M35.405,53.73v1.111c0,0.34,0.276,0.617,0.616,0.617h1.833c0.341,0,0.617-0.277,0.617-0.617V53.73
		c0-0.34-0.276-0.615-0.617-0.615h-1.833C35.681,53.115,35.405,53.391,35.405,53.73L35.405,53.73z M40.84,65.027v-0.152
		c0-0.135-0.106-0.24-0.239-0.24H35.63c-0.132,0-0.24,0.107-0.24,0.24v0.152c0,0.133,0.109,0.24,0.24,0.24h4.971
		C40.733,65.268,40.84,65.16,40.84,65.027L40.84,65.027z M40.84,63.443v-0.15c0-0.135-0.106-0.242-0.239-0.242H35.63
		c-0.132,0-0.24,0.107-0.24,0.242v0.15c0,0.135,0.109,0.242,0.24,0.242h4.971C40.733,63.686,40.84,63.578,40.84,63.443L40.84,63.443
		z M40.84,61.861v-0.152c0-0.133-0.106-0.238-0.239-0.238H35.63c-0.132,0-0.24,0.107-0.24,0.238v0.152
		c0,0.135,0.109,0.242,0.24,0.242h4.971C40.733,62.104,40.84,61.996,40.84,61.861L40.84,61.861z M40.84,60.281v-0.154
		c0-0.131-0.106-0.24-0.239-0.24H35.63c-0.132,0-0.24,0.109-0.24,0.24v0.154c0,0.133,0.109,0.238,0.24,0.238h4.971
		C40.733,60.521,40.84,60.414,40.84,60.281L40.84,60.281z M40.84,66.611v-0.156c0-0.131-0.106-0.238-0.239-0.238H35.63
		c-0.132,0-0.24,0.107-0.24,0.238v0.156c0,0.131,0.109,0.24,0.24,0.24h4.971C40.733,66.852,40.84,66.742,40.84,66.611L40.84,66.611z
		 M31.274,53.73v1.111c0,0.34,0.276,0.617,0.616,0.617h1.833c0.34,0,0.616-0.277,0.616-0.617V53.73c0-0.34-0.276-0.615-0.616-0.615
		h-1.833C31.55,53.115,31.274,53.391,31.274,53.73L31.274,53.73z M39.535,57.145v1.107c0,0.342,0.275,0.619,0.616,0.619h1.833
		c0.341,0,0.616-0.277,0.616-0.619v-1.107c0-0.342-0.275-0.617-0.616-0.617h-1.833C39.81,56.527,39.535,56.803,39.535,57.145
		L39.535,57.145z M36.074,57.729c0-0.453,0.367-0.82,0.819-0.82c0.453,0,0.819,0.363,0.819,0.82c0,0.451-0.366,0.818-0.819,0.818
		C36.441,58.547,36.074,58.18,36.074,57.729L36.074,57.729z M40.265,54.318c0-0.451,0.367-0.82,0.82-0.82
		c0.453,0,0.819,0.369,0.819,0.82s-0.367,0.82-0.819,0.82C40.632,55.139,40.265,54.77,40.265,54.318L40.265,54.318z"/>
	<path display="inline" fill="#FFFFFF" d="M104.115,74.369l7.502-0.045l7.502,0.045c1.028,0,1.785-0.604,2.068-1.539
		c0.127-0.84,1.751-11.703,2.268-14.812c0.387-2.307,3.109-3.361,5.145-3.615c5.98-0.879,11.574-2.281,16.673-4.203
		c0.04-2.119,0.054-4.344,0.054-6.674c0-5.532-0.902-10.804-2.586-15.57c-11.372-1.87-20.266-10.711-21.438-21.756
		c-2.968-0.904-6.312-1.414-9.685-1.414c-3.373,0-6.715,0.51-9.684,1.414c-1.173,11.043-10.064,19.886-21.44,21.755
		c-1.683,4.766-2.584,10.037-2.584,15.571c0,2.328,0.014,4.553,0.054,6.674c5.09,1.916,10.672,3.32,16.642,4.199
		c0,0,0.282,0.031,0.711,0.119c1.847,0.387,4.106,1.355,4.464,3.498c0.52,3.111,2.143,13.971,2.268,14.812
		C102.33,73.764,103.088,74.369,104.115,74.369L104.115,74.369z M98.334,12.421c-5.728,0.77-14.358,8.584-13.78,10.422
		c0.18,0.566,0.685,1.146,1.516,1.521C91.587,22.008,95.963,17.877,98.334,12.421L98.334,12.421z M123.949,8.826
		c0.277,1.111,0.64,2.193,1.086,3.236c3.375,1.454,6.588,3.04,9.609,4.736C131.678,13.353,128.073,10.625,123.949,8.826
		L123.949,8.826z M79.571,57.854c4.051,1.434,8.402,2.58,12.958,3.379c4.32,1.111,4.359,2.986,4.884,6.422
		c0.674,0.119,1.354,0.232,2.038,0.334c-0.535-3.535-1.197-7.885-1.496-9.668c-0.264-1.578-3.266-2.051-3.572-2.086
		c-5.207-0.766-10.063-1.898-14.941-3.557c0.008,0.66,0.021,1.311,0.037,1.949c4.925,1.746,10.287,3.064,15.957,3.859
		c0.814,0.117,0.643,1.336-0.172,1.223c-5.576-0.783-10.866-2.064-15.749-3.766L79.571,57.854L79.571,57.854z M96.136,67.418
		c-0.364-2.658-0.378-4.074-3.867-4.98c-4.44-0.779-8.672-1.883-12.637-3.256c0.314,3.164,1.897,3.963,2.508,4.203
		C86.459,65.094,91.157,66.459,96.136,67.418L96.136,67.418z M143.604,59.182c-3.965,1.373-8.196,2.477-12.637,3.256
		c-3.488,0.906-3.503,2.322-3.867,4.98c4.979-0.959,9.676-2.324,13.996-4.033C141.708,63.145,143.289,62.346,143.604,59.182
		L143.604,59.182z M145.533,57.164l0.152-0.059c0.766-0.297,1.211,0.852,0.443,1.148l-0.631,0.242
		c-0.142,4.592-2.432,6.098-3.722,6.609c-5.564,2.203-11.724,3.84-18.281,4.797l-0.493,3.289c0,0-0.051,0.234-0.176,0.533
		c-0.633,1.535-1.99,2.494-3.713,2.494l-7.502-0.049l-7.49,0.049c-1.83,0-3.505-1.252-3.887-3.027l-0.494-3.289
		c-6.558-0.957-12.716-2.594-18.281-4.797c-1.291-0.512-3.581-2.018-3.725-6.609l-0.63-0.242c-0.766-0.297-0.321-1.445,0.446-1.148
		l0.151,0.059l-0.055-1.898l-0.542-0.205c-0.766-0.299-0.321-1.447,0.446-1.15c0.05-0.604,0.04-1.24,0.036-1.887
		c-0.481-0.176-0.961-0.357-1.445-0.543c-0.058-2.652-0.079-5.301-0.079-7.955c0-6.048,0.986-11.565,3.071-17.238
		c0.851-0.122,1.688-0.28,2.509-0.475c1.666-3.965,3.904-7.524,6.636-10.521c2.455-1.446,5.799-3.529,6.071-3.89
		c0.326-0.429,0.514-0.908,0.359-1.332c-0.023-0.054-0.049-0.103-0.08-0.152c1.65-1.054,3.406-1.95,5.258-2.673
		c0.141-0.79,0.244-1.6,0.31-2.428c3.78-1.237,7.437-1.879,11.421-1.879s7.642,0.642,11.421,1.879
		c0.065,0.828,0.169,1.638,0.31,2.428c8.27,3.229,14.617,9.928,18.244,18.568c0.82,0.194,1.658,0.353,2.511,0.475
		c2.086,5.673,3.073,11.19,3.073,17.238c0,2.654-0.023,5.303-0.081,7.955c-0.481,0.186-0.964,0.367-1.444,0.543
		c-0.006,0.646-0.015,1.283-0.028,1.91c0.831-0.322,1.275,0.828,0.509,1.127l-0.541,0.205L145.533,57.164L145.533,57.164z
		 M125.822,67.654c0.523-3.436,0.564-5.311,4.882-6.422c4.557-0.799,8.909-1.945,12.959-3.379l0.058-1.91
		c-4.883,1.701-10.174,2.982-15.748,3.766c-0.815,0.113-0.986-1.105-0.172-1.223c5.67-0.795,11.031-2.113,15.957-3.859
		c0.016-0.639,0.028-1.289,0.037-1.949c-4.879,1.658-9.736,2.791-14.941,3.557c-0.307,0.035-3.31,0.508-3.572,2.086
		c-0.298,1.783-0.961,6.133-1.496,9.668C124.467,67.885,125.147,67.773,125.822,67.654L125.822,67.654z M90.391,28.136
		c0.76,1.231,3.299,1.589,7.639-0.557c0.547-0.144,6.158-3.055,6.562-3.48c0.32-0.34,0.577-0.741,0.623-1.148
		c0.018-0.281-0.043-0.517-0.17-0.712C98.193,23.111,93.438,25.349,90.391,28.136L90.391,28.136z M97.578,37.154h-4.17
		c0.197,4.817,2.947,4.956,4.082,5.055c0.061,0.006,0.61-0.053,0.917-0.08C98.062,40.652,97.781,38.992,97.578,37.154L97.578,37.154
		z M129.826,37.154h-4.166c-0.206,1.84-0.486,3.499-0.833,4.975c0.308,0.027,0.857,0.084,0.917,0.076
		C126.88,42.109,129.631,41.971,129.826,37.154L129.826,37.154z M103.764,50.125c0.408,0.037,0.467-0.574,0.059-0.611
		c-16.229-1.539-16.899-7.998-16.899-12.149c0-2.4,0.908-5.069,3.026-7.461c0.273-0.306-0.188-0.717-0.461-0.408
		c-2.214,2.5-3.18,5.31-3.18,7.869C86.307,41.854,87.24,48.559,103.764,50.125L103.764,50.125z M107.924,22.272
		c-0.41,0.026-0.369,0.642,0.041,0.615c1.08-0.072,2.207-0.111,3.383-0.117h0.54c2.417,0.01,4.623,0.167,6.636,0.443
		c13.1,1.801,17.788,8.706,17.788,14.151c0,4.174-0.696,10.686-17.193,12.172c-0.409,0.037-0.354,0.652,0.055,0.615
		c16.791-1.514,17.755-8.27,17.755-12.788c0-5.858-5.031-12.935-18.322-14.761c-2.035-0.281-4.271-0.438-6.717-0.449h-0.543
		C110.157,22.16,109.016,22.201,107.924,22.272L107.924,22.272z M100.237,45.35c4.278,0.729,7.63,2.822,7.63,4.855
		c0,0.035-0.021,0.258-0.042,0.492c1.198,0.047,2.46,0.072,3.792,0.072c1.281,0,2.495-0.023,3.652-0.064
		c-0.021-0.238-0.04-0.465-0.04-0.5c0-2.061,3.442-4.186,7.804-4.887c0.084-0.395,0.129-0.791,0.129-1.186
		c0-0.707-0.033-2.053-0.021-3.104c-0.881,0.596-1.865,1.047-2.922,1.328c1.099-0.764,2.072-1.716,2.89-2.817
		c0.672-0.947,1.196-2.07,1.364-3.218l0.035-0.283c0.298-3.236-2.398-6.556-12.877-6.556c-1.309,0-2.494,0.052-3.569,0.148
		c0.082-0.169,0.14-0.342,0.156-0.516c1.692-8.787-12.459,1.4-12.803,3.821c-0.179,1.259,0.646,2.858,3.341,2.226
		c-0.025,0.293-0.023,0.584,0.004,0.876l0.034,0.285c0.167,1.146,0.692,2.27,1.362,3.218c0.818,1.1,1.795,2.051,2.891,2.815
		c-1.056-0.281-2.041-0.732-2.922-1.328c0.01,1.051-0.02,2.398-0.02,3.104C100.104,44.533,100.15,44.941,100.237,45.35
		L100.237,45.35z M138.469,37.365c0,6.333-2.332,14.637-26.852,14.637c-24.52,0-26.85-8.307-26.85-14.637
		c0-8.021,7.856-16.667,26.576-16.75h0.55C130.613,20.698,138.469,29.343,138.469,37.365L138.469,37.365z M107.023,46.912
		c0.166-0.396,1.288-1.131,2.479-1.318c1.317-0.207,1.922,0.07,2.164,0.381c0.24-0.311,0.845-0.588,2.16-0.381
		c1.213,0.191,2.352,0.945,2.489,1.336c-1.36-0.375-2.964-0.59-4.683-0.59C109.946,46.34,108.369,46.547,107.023,46.912
		L107.023,46.912z M115.045,47.668c-0.473,0.848-1.803,1.459-3.371,1.459c-1.555,0-2.877-0.604-3.358-1.441
		c0.851,0.307,2.031,0.498,3.339,0.498C112.986,48.184,114.191,47.984,115.045,47.668L115.045,47.668z M117.93,35.242
		c1.713,0.283,2.003,0.789,2.003,0.789l-5.151,0.1c0.077-0.086,0.239-0.333,0.599-0.554c-1.812,0.127-2.503-1.282-2.503-1.282
		s0.927,0.554,2.303,0.102c1.801-0.597,1.023-0.37,3.022-1.06c2.235-0.77,3.763,2.437,3.763,2.437s-0.531-0.718-1.428-1.008
		c-1.395-0.45-1.868-0.082-3.452,0.412C117.339,35.179,117.617,35.199,117.93,35.242L117.93,35.242z M110.35,34.294
		c0,0-0.692,1.409-2.503,1.282c0.358,0.223,0.521,0.47,0.599,0.554l-5.152-0.099c0,0,0.289-0.507,2.004-0.788
		c0.311-0.045,0.59-0.064,0.842-0.065c-1.58-0.495-2.055-0.862-3.45-0.412c-0.896,0.29-1.428,1.007-1.428,1.007
		s1.528-3.205,3.763-2.437c1.999,0.69,1.223,0.464,3.024,1.06C109.423,34.849,110.35,34.294,110.35,34.294L110.35,34.294z
		 M81.827,38.09c0-0.834,0.504-1.512,1.125-1.512s1.124,0.678,1.124,1.512s-0.503,1.511-1.124,1.511S81.827,38.927,81.827,38.09
		L81.827,38.09z M102.568,17.774c1.791-2.731,3.136-5.771,3.927-9.033c1.573-0.28,3.218-0.426,4.931-0.426h0.384
		c1.713,0,3.356,0.146,4.929,0.426c0.76,3.132,2.028,6.055,3.713,8.699c-1.648-1.833-2.893-3.859-3.641-6.025
		c-1.581-0.196-3.234-0.298-4.955-0.298h-0.387c-1.72,0-3.372,0.102-4.953,0.298C105.721,13.711,104.368,15.853,102.568,17.774
		L102.568,17.774z M139.312,38.09c0-0.834,0.505-1.512,1.124-1.512c0.622,0,1.126,0.678,1.126,1.512s-0.504,1.511-1.126,1.511
		C139.817,39.601,139.312,38.927,139.312,38.09L139.312,38.09z M107.771,69.211c0,0-0.864,0.02-1.036-1.008
		c-0.539-3.881-1.312-8.934-1.647-10.945c-0.342-2.051-0.731-3.428-1.594-4.383c2.41,0.234,5.108,0.359,8.123,0.359
		c3.018,0,5.712-0.125,8.125-0.359c-0.861,0.955-1.254,2.334-1.594,4.383c-0.336,2.012-1.109,7.064-1.648,10.945
		c-0.172,1.027-1.036,1.008-1.036,1.008H107.771L107.771,69.211z M110.107,58.301v1.109c0,0.34,0.276,0.617,0.616,0.617h1.833
		c0.341,0,0.617-0.277,0.617-0.617v-1.109c0-0.342-0.276-0.617-0.617-0.617h-1.833C110.384,57.684,110.107,57.959,110.107,58.301
		L110.107,58.301z M114.237,54.889V56c0,0.34,0.275,0.615,0.616,0.615h1.832c0.342,0,0.617-0.275,0.617-0.615v-1.111
		c0-0.342-0.275-0.617-0.617-0.617h-1.832C114.513,54.271,114.237,54.547,114.237,54.889L114.237,54.889z M110.107,54.889V56
		c0,0.34,0.276,0.615,0.616,0.615h1.833c0.341,0,0.617-0.275,0.617-0.615v-1.111c0-0.342-0.276-0.617-0.617-0.617h-1.833
		C110.384,54.271,110.107,54.547,110.107,54.889L110.107,54.889z M115.543,66.184v-0.152c0-0.135-0.107-0.24-0.238-0.24h-4.971
		c-0.133,0-0.24,0.107-0.24,0.24v0.152c0,0.133,0.108,0.24,0.24,0.24h4.971C115.436,66.424,115.543,66.316,115.543,66.184
		L115.543,66.184z M115.543,64.602v-0.152c0-0.135-0.107-0.24-0.238-0.24h-4.971c-0.133,0-0.24,0.105-0.24,0.24v0.152
		c0,0.133,0.108,0.24,0.24,0.24h4.971C115.436,64.842,115.543,64.734,115.543,64.602L115.543,64.602z M115.543,63.02v-0.152
		c0-0.135-0.107-0.24-0.238-0.24h-4.971c-0.133,0-0.24,0.107-0.24,0.24v0.152c0,0.133,0.108,0.24,0.24,0.24h4.971
		C115.436,63.26,115.543,63.152,115.543,63.02L115.543,63.02z M115.543,61.438v-0.154c0-0.131-0.107-0.24-0.238-0.24h-4.971
		c-0.133,0-0.24,0.109-0.24,0.24v0.154c0,0.133,0.108,0.238,0.24,0.238h4.971C115.436,61.678,115.543,61.57,115.543,61.438
		L115.543,61.438z M115.543,67.768v-0.156c0-0.131-0.107-0.238-0.238-0.238h-4.971c-0.133,0-0.24,0.107-0.24,0.238v0.156
		c0,0.133,0.108,0.24,0.24,0.24h4.971C115.436,68.008,115.543,67.9,115.543,67.768L115.543,67.768z M105.978,54.889V56
		c0,0.34,0.275,0.615,0.616,0.615h1.832c0.342,0,0.617-0.275,0.617-0.615v-1.111c0-0.342-0.275-0.617-0.617-0.617h-1.832
		C106.253,54.271,105.978,54.547,105.978,54.889L105.978,54.889z M114.237,58.301v1.109c0,0.34,0.275,0.617,0.616,0.617h1.832
		c0.342,0,0.617-0.277,0.617-0.617v-1.109c0-0.342-0.275-0.617-0.617-0.617h-1.832C114.513,57.684,114.237,57.959,114.237,58.301
		L114.237,58.301z M110.776,58.885c0-0.453,0.368-0.82,0.819-0.82c0.453,0,0.818,0.365,0.818,0.82c0,0.451-0.365,0.818-0.818,0.818
		C111.145,59.703,110.776,59.336,110.776,58.885L110.776,58.885z M114.968,55.477c0-0.453,0.366-0.82,0.819-0.82
		s0.82,0.367,0.82,0.82c0,0.451-0.367,0.818-0.82,0.818S114.968,55.928,114.968,55.477L114.968,55.477z"/>
	<path display="inline" fill="#FFFFFF" d="M179.581,74.369l7.502-0.045l7.501,0.045c1.029,0,1.786-0.604,2.069-1.539
		c0.126-0.84,1.75-11.703,2.267-14.812c0.387-2.307,3.11-3.361,5.145-3.615c5.981-0.879,11.574-2.281,16.673-4.203
		c0.04-2.119,0.054-4.344,0.054-6.674c0-5.532-0.901-10.804-2.585-15.57c-11.373-1.87-20.266-10.711-21.438-21.756
		c-2.969-0.904-6.313-1.414-9.685-1.414c-3.373,0-6.716,0.51-9.684,1.414c-1.174,11.043-10.065,19.886-21.441,21.755
		c-1.683,4.766-2.584,10.037-2.584,15.571c0,2.328,0.014,4.553,0.054,6.674c5.09,1.916,10.673,3.32,16.642,4.199
		c0,0,0.282,0.031,0.712,0.119c1.847,0.387,4.104,1.355,4.463,3.498c0.519,3.111,2.143,13.971,2.269,14.812
		C177.796,73.764,178.553,74.369,179.581,74.369L179.581,74.369z M173.798,12.421c-5.727,0.77-14.356,8.584-13.778,10.422
		c0.179,0.566,0.684,1.146,1.515,1.521C167.052,22.008,171.428,17.877,173.798,12.421L173.798,12.421z M199.415,8.826
		c0.276,1.111,0.639,2.193,1.085,3.236c3.375,1.454,6.589,3.04,9.609,4.736C207.143,13.353,203.538,10.625,199.415,8.826
		L199.415,8.826z M155.035,57.854c4.053,1.434,8.403,2.58,12.959,3.379c4.321,1.111,4.359,2.986,4.884,6.422
		c0.674,0.119,1.354,0.232,2.039,0.334c-0.536-3.535-1.199-7.885-1.496-9.668c-0.265-1.578-3.266-2.051-3.573-2.086
		c-5.207-0.766-10.062-1.898-14.94-3.557c0.008,0.66,0.021,1.311,0.036,1.949c4.926,1.746,10.287,3.064,15.958,3.859
		c0.813,0.117,0.642,1.336-0.173,1.223c-5.575-0.783-10.865-2.064-15.749-3.766L155.035,57.854L155.035,57.854z M171.601,67.418
		c-0.364-2.658-0.378-4.074-3.866-4.98c-4.441-0.779-8.673-1.883-12.639-3.256c0.314,3.164,1.898,3.963,2.509,4.203
		C161.926,65.094,166.623,66.459,171.601,67.418L171.601,67.418z M219.069,59.182c-3.965,1.373-8.196,2.477-12.638,3.256
		c-3.489,0.906-3.502,2.322-3.866,4.98c4.978-0.959,9.676-2.324,13.996-4.033C217.173,63.145,218.755,62.346,219.069,59.182
		L219.069,59.182z M220.999,57.164l0.152-0.059c0.765-0.297,1.21,0.852,0.443,1.148l-0.631,0.242
		c-0.143,4.592-2.432,6.098-3.723,6.609c-5.564,2.203-11.723,3.84-18.281,4.797l-0.494,3.289c0,0-0.05,0.234-0.175,0.533
		c-0.632,1.535-1.99,2.494-3.713,2.494l-7.501-0.049l-7.491,0.049c-1.83,0-3.505-1.252-3.886-3.027l-0.494-3.289
		c-6.559-0.957-12.717-2.594-18.282-4.797c-1.29-0.512-3.58-2.018-3.724-6.609l-0.63-0.242c-0.766-0.297-0.322-1.445,0.445-1.148
		l0.15,0.059l-0.055-1.898l-0.541-0.205c-0.766-0.299-0.322-1.447,0.445-1.15c0.051-0.604,0.04-1.24,0.035-1.887
		c-0.48-0.176-0.961-0.357-1.444-0.543c-0.058-2.652-0.079-5.301-0.079-7.955c0-6.048,0.986-11.565,3.071-17.238
		c0.851-0.122,1.688-0.28,2.509-0.475c1.666-3.965,3.904-7.524,6.637-10.521c2.455-1.446,5.798-3.529,6.07-3.89
		c0.326-0.429,0.515-0.908,0.358-1.332c-0.022-0.054-0.048-0.103-0.079-0.152c1.651-1.054,3.407-1.95,5.258-2.673
		c0.141-0.79,0.245-1.6,0.311-2.428c3.779-1.237,7.436-1.879,11.421-1.879c3.983,0,7.641,0.642,11.42,1.879
		c0.066,0.828,0.169,1.638,0.31,2.428c8.27,3.229,14.617,9.928,18.244,18.568c0.82,0.194,1.658,0.353,2.511,0.475
		c2.086,5.673,3.073,11.19,3.073,17.238c0,2.654-0.022,5.303-0.081,7.955c-0.481,0.186-0.964,0.367-1.443,0.543
		c-0.006,0.646-0.016,1.283-0.028,1.91c0.83-0.322,1.274,0.828,0.509,1.127l-0.542,0.205L220.999,57.164L220.999,57.164z
		 M201.287,67.654c0.523-3.436,0.565-5.311,4.882-6.422c4.557-0.799,8.909-1.945,12.959-3.379l0.058-1.91
		c-4.883,1.701-10.173,2.982-15.748,3.766c-0.814,0.113-0.986-1.105-0.171-1.223c5.67-0.795,11.03-2.113,15.957-3.859
		c0.015-0.639,0.027-1.289,0.036-1.949c-4.879,1.658-9.736,2.791-14.941,3.557c-0.307,0.035-3.31,0.508-3.573,2.086
		c-0.297,1.783-0.96,6.133-1.495,9.668C199.933,67.885,200.612,67.773,201.287,67.654L201.287,67.654z M165.856,28.136
		c0.759,1.231,3.299,1.589,7.639-0.557c0.546-0.144,6.157-3.055,6.562-3.48c0.32-0.34,0.577-0.741,0.624-1.148
		c0.017-0.281-0.044-0.517-0.171-0.712C173.659,23.111,168.903,25.349,165.856,28.136L165.856,28.136z M173.043,37.154h-4.17
		c0.198,4.817,2.947,4.956,4.083,5.055c0.06,0.006,0.609-0.053,0.916-0.08C173.527,40.652,173.247,38.992,173.043,37.154
		L173.043,37.154z M205.291,37.154h-4.166c-0.206,1.84-0.485,3.499-0.833,4.975c0.308,0.027,0.857,0.084,0.917,0.076
		C202.346,42.109,205.096,41.971,205.291,37.154L205.291,37.154z M179.229,50.125c0.407,0.037,0.466-0.574,0.058-0.611
		c-16.229-1.539-16.898-7.998-16.898-12.149c0-2.4,0.907-5.069,3.025-7.461c0.273-0.306-0.188-0.717-0.461-0.408
		c-2.214,2.5-3.181,5.31-3.181,7.869C161.772,41.854,162.705,48.559,179.229,50.125L179.229,50.125z M183.39,22.272
		c-0.41,0.026-0.37,0.642,0.04,0.615c1.08-0.072,2.207-0.111,3.383-0.117h0.54c2.418,0.01,4.623,0.167,6.637,0.443
		c13.1,1.801,17.788,8.706,17.788,14.151c0,4.174-0.697,10.686-17.194,12.172c-0.409,0.037-0.354,0.652,0.055,0.615
		c16.791-1.514,17.756-8.27,17.756-12.788c0-5.858-5.032-12.935-18.322-14.761c-2.036-0.281-4.271-0.438-6.718-0.449h-0.543
		C185.622,22.16,184.481,22.201,183.39,22.272L183.39,22.272z M175.702,45.35c4.278,0.729,7.63,2.822,7.63,4.855
		c0,0.035-0.021,0.258-0.041,0.492c1.196,0.047,2.46,0.072,3.792,0.072c1.28,0,2.495-0.023,3.651-0.064
		c-0.021-0.238-0.04-0.465-0.04-0.5c0-2.061,3.442-4.186,7.804-4.887c0.084-0.395,0.129-0.791,0.129-1.186
		c0-0.707-0.032-2.053-0.021-3.104c-0.881,0.596-1.866,1.047-2.922,1.328c1.099-0.764,2.072-1.716,2.89-2.817
		c0.672-0.947,1.196-2.07,1.364-3.218l0.035-0.283c0.298-3.236-2.398-6.556-12.877-6.556c-1.308,0-2.494,0.052-3.568,0.148
		c0.081-0.169,0.139-0.342,0.156-0.516c1.691-8.787-12.46,1.4-12.804,3.821c-0.179,1.259,0.646,2.858,3.341,2.226
		c-0.024,0.293-0.022,0.584,0.004,0.876l0.034,0.285c0.168,1.146,0.693,2.27,1.363,3.218c0.817,1.1,1.793,2.051,2.891,2.815
		c-1.057-0.281-2.041-0.732-2.923-1.328c0.011,1.051-0.02,2.398-0.02,3.104C175.568,44.533,175.616,44.941,175.702,45.35
		L175.702,45.35z M213.934,37.365c0,6.333-2.331,14.637-26.851,14.637c-24.521,0-26.851-8.307-26.851-14.637
		c0-8.021,7.855-16.667,26.576-16.75h0.549C206.078,20.698,213.934,29.343,213.934,37.365L213.934,37.365z M182.489,46.912
		c0.165-0.396,1.287-1.131,2.479-1.318c1.316-0.207,1.921,0.07,2.163,0.381c0.24-0.311,0.845-0.588,2.161-0.381
		c1.212,0.191,2.352,0.945,2.488,1.336c-1.36-0.375-2.963-0.59-4.682-0.59C185.412,46.34,183.834,46.547,182.489,46.912
		L182.489,46.912z M190.51,47.668c-0.472,0.848-1.803,1.459-3.37,1.459c-1.557,0-2.877-0.604-3.359-1.441
		c0.85,0.307,2.031,0.498,3.339,0.498C188.451,48.184,189.656,47.984,190.51,47.668L190.51,47.668z M193.395,35.242
		c1.713,0.283,2.003,0.789,2.003,0.789l-5.151,0.1c0.078-0.086,0.239-0.333,0.599-0.554c-1.812,0.127-2.502-1.282-2.502-1.282
		s0.926,0.554,2.302,0.102c1.801-0.597,1.023-0.37,3.022-1.06c2.235-0.77,3.763,2.437,3.763,2.437s-0.53-0.718-1.428-1.008
		c-1.395-0.45-1.867-0.082-3.451,0.412C192.804,35.179,193.082,35.199,193.395,35.242L193.395,35.242z M185.814,34.294
		c0,0-0.692,1.409-2.503,1.282c0.358,0.223,0.521,0.47,0.599,0.554l-5.151-0.099c0,0,0.288-0.507,2.003-0.788
		c0.311-0.045,0.591-0.064,0.842-0.065c-1.58-0.495-2.055-0.862-3.45-0.412c-0.896,0.29-1.428,1.007-1.428,1.007
		s1.528-3.205,3.763-2.437c2,0.69,1.223,0.464,3.025,1.06C184.888,34.849,185.814,34.294,185.814,34.294L185.814,34.294z
		 M157.292,38.09c0-0.834,0.505-1.512,1.124-1.512c0.622,0,1.125,0.678,1.125,1.512s-0.503,1.511-1.125,1.511
		C157.797,39.601,157.292,38.927,157.292,38.09L157.292,38.09z M178.033,17.774c1.791-2.731,3.137-5.771,3.927-9.033
		c1.574-0.28,3.218-0.426,4.931-0.426h0.384c1.713,0,3.357,0.146,4.929,0.426c0.759,3.132,2.028,6.055,3.713,8.699
		c-1.648-1.833-2.893-3.859-3.64-6.025c-1.582-0.196-3.236-0.298-4.955-0.298h-0.387c-1.721,0-3.373,0.102-4.953,0.298
		C181.186,13.711,179.834,15.853,178.033,17.774L178.033,17.774z M214.777,38.09c0-0.834,0.505-1.512,1.125-1.512
		c0.622,0,1.126,0.678,1.126,1.512s-0.504,1.511-1.126,1.511C215.282,39.601,214.777,38.927,214.777,38.09L214.777,38.09z
		 M183.237,69.211c0,0-0.865,0.02-1.037-1.008c-0.539-3.881-1.312-8.934-1.647-10.945c-0.342-2.051-0.73-3.428-1.594-4.383
		c2.41,0.234,5.109,0.359,8.124,0.359c3.017,0,5.712-0.125,8.124-0.359c-0.861,0.955-1.254,2.334-1.593,4.383
		c-0.336,2.012-1.11,7.064-1.648,10.945c-0.172,1.027-1.037,1.008-1.037,1.008H183.237L183.237,69.211z M185.573,58.301v1.109
		c0,0.34,0.275,0.617,0.616,0.617h1.832c0.341,0,0.616-0.277,0.616-0.617v-1.109c0-0.342-0.275-0.617-0.616-0.617h-1.832
		C185.849,57.684,185.573,57.959,185.573,58.301L185.573,58.301z M189.702,54.889V56c0,0.34,0.275,0.615,0.617,0.615h1.832
		c0.34,0,0.616-0.275,0.616-0.615v-1.111c0-0.342-0.276-0.617-0.616-0.617h-1.832C189.978,54.271,189.702,54.547,189.702,54.889
		L189.702,54.889z M185.573,54.889V56c0,0.34,0.275,0.615,0.616,0.615h1.832c0.341,0,0.616-0.275,0.616-0.615v-1.111
		c0-0.342-0.275-0.617-0.616-0.617h-1.832C185.849,54.271,185.573,54.547,185.573,54.889L185.573,54.889z M191.008,66.184v-0.152
		c0-0.135-0.106-0.24-0.239-0.24h-4.97c-0.133,0-0.24,0.107-0.24,0.24v0.152c0,0.133,0.108,0.24,0.24,0.24h4.97
		C190.901,66.424,191.008,66.316,191.008,66.184L191.008,66.184z M191.008,64.602v-0.152c0-0.135-0.106-0.24-0.239-0.24h-4.97
		c-0.133,0-0.24,0.105-0.24,0.24v0.152c0,0.133,0.108,0.24,0.24,0.24h4.97C190.901,64.842,191.008,64.734,191.008,64.602
		L191.008,64.602z M191.008,63.02v-0.152c0-0.135-0.106-0.24-0.239-0.24h-4.97c-0.133,0-0.24,0.107-0.24,0.24v0.152
		c0,0.133,0.108,0.24,0.24,0.24h4.97C190.901,63.26,191.008,63.152,191.008,63.02L191.008,63.02z M191.008,61.438v-0.154
		c0-0.131-0.106-0.24-0.239-0.24h-4.97c-0.133,0-0.24,0.109-0.24,0.24v0.154c0,0.133,0.108,0.238,0.24,0.238h4.97
		C190.901,61.678,191.008,61.57,191.008,61.438L191.008,61.438z M191.008,67.768v-0.156c0-0.131-0.106-0.238-0.239-0.238h-4.97
		c-0.133,0-0.24,0.107-0.24,0.238v0.156c0,0.133,0.108,0.24,0.24,0.24h4.97C190.901,68.008,191.008,67.9,191.008,67.768
		L191.008,67.768z M181.442,54.889V56c0,0.34,0.276,0.615,0.616,0.615h1.832c0.342,0,0.617-0.275,0.617-0.615v-1.111
		c0-0.342-0.275-0.617-0.617-0.617h-1.832C181.719,54.271,181.442,54.547,181.442,54.889L181.442,54.889z M189.702,58.301v1.109
		c0,0.34,0.275,0.617,0.617,0.617h1.832c0.34,0,0.616-0.277,0.616-0.617v-1.109c0-0.342-0.276-0.617-0.616-0.617h-1.832
		C189.978,57.684,189.702,57.959,189.702,58.301L189.702,58.301z M186.241,58.885c0-0.453,0.367-0.82,0.82-0.82
		c0.452,0,0.818,0.365,0.818,0.82c0,0.451-0.366,0.818-0.818,0.818C186.608,59.703,186.241,59.336,186.241,58.885L186.241,58.885z
		 M190.434,55.477c0-0.453,0.365-0.82,0.819-0.82c0.452,0,0.819,0.367,0.819,0.82c0,0.451-0.367,0.818-0.819,0.818
		C190.799,56.295,190.434,55.928,190.434,55.477L190.434,55.477z"/>
</g>
<g id="Layer_5">
	<g>
		<rect x="15.311" y="59.807" fill="#FFFFFF" width="3.858" height="15.161"/>
		<path fill="#FFFFFF" d="M33.343,21.288c0-10.57-6.924-18.542-16.113-18.542c-9.176,0-16.095,7.972-16.095,18.542
			c0,4.085,1.025,7.765,2.515,11.147l-0.008,0.002c0.64,1.564,1.357,2.963,2.14,4.21c1.096,1.934,2.275,3.772,3.408,5.539
			c3.165,4.927,6.154,9.58,6.154,14.43v1.445h3.792v-1.445c0-4.851,2.988-9.503,6.153-14.43c1.136-1.771,2.316-3.614,3.418-5.554
			c0.778-1.243,1.492-2.637,2.131-4.195l-0.008-0.002C32.317,29.053,33.343,25.373,33.343,21.288z M4.192,23.85h1.35v4.029H5.035
			C4.646,26.581,4.358,25.241,4.192,23.85z M4.024,21.288c0-0.884,0.062-1.767,0.178-2.64h1.341v4.028H4.085
			C4.056,22.216,4.024,21.757,4.024,21.288z M9.607,8.241h0.403v4.027H6.807v-0.901C7.58,10.178,8.515,9.116,9.607,8.241z
			 M18.944,18.648v4.027H15.74v-4.027H18.944z M15.74,17.472v-4.027h3.204v4.027H15.74z M18.944,23.85v4.029H15.74V23.85H18.944z
			 M18.944,29.054v4.028H15.74v-4.028H18.944z M18.944,12.27H15.74V8.241h3.204V12.27z M14.479,13.444v4.027h-3.206v-4.027H14.479
			L14.479,13.444z M11.272,12.27V8.241h3.206v4.027L11.272,12.27L11.272,12.27z M14.479,18.648v4.027h-3.206v-4.027H14.479z
			 M14.479,23.85v4.029h-3.206V23.85H14.479z M14.479,29.054v4.028h-3.206v-4.028H14.479z M11.373,7.067
			c0.947-0.514,1.981-0.898,3.105-1.14v1.14H11.373z M6.807,22.677v-4.028h3.204v4.028H6.807z M10.011,23.85v4.029H6.806V23.85
			H10.011z M6.807,17.472v-4.027h3.204v4.027H6.807z M4.395,17.472c0.254-1.295,0.636-2.554,1.147-3.739v3.739H4.395z M6.807,32.388
			v-3.333h3.204v4.027H7.146C7.028,32.852,6.916,32.619,6.807,32.388z M11.272,34.257h3.206v6.167
			c-1.196-0.371-2.262-0.984-3.206-1.759V34.257z M15.74,34.257h3.204v6.427c-0.506,0.09-1.031,0.14-1.583,0.14h-0.254
			c-0.473,0-0.926-0.039-1.367-0.106V34.257z M20.208,27.879V23.85h3.205v4.029H20.208z M23.413,29.054v4.028h-3.205v-4.028H23.413z
			 M20.208,22.677v-4.028h3.205v4.028H20.208z M20.208,17.472v-4.027h3.205v4.027H20.208z M20.208,12.27V8.241h3.205v4.027
			L20.208,12.27L20.208,12.27z M23.413,34.257v4.227c-0.942,0.812-2.003,1.471-3.205,1.877v-6.103L23.413,34.257L23.413,34.257z
			 M20.208,7.067V5.972c1.042,0.242,2.009,0.614,2.896,1.096H20.208z M30.454,21.288c0,0.469-0.018,0.931-0.046,1.389h-1.267v-4.028
			h1.134C30.392,19.521,30.454,20.403,30.454,21.288z M27.879,18.648v4.027h-3.204v-4.027H27.879z M24.675,17.472v-4.027h3.204
			v4.027H24.675z M27.879,23.85v4.029h-3.204V23.85H27.879z M29.143,17.472v-3.243c0.41,1.038,0.724,2.129,0.94,3.245h-0.94V17.472z
			 M27.879,11.689v0.58h-3.204V8.241h0.194C26.061,9.196,27.066,10.368,27.879,11.689z M24.675,29.054h3.204v2.887
			c-0.178,0.383-0.354,0.764-0.544,1.142h-2.66V29.054z M29.143,27.879V23.85h1.156c-0.163,1.392-0.455,2.731-0.847,4.029H29.143z
			 M17.239,5.637c0.588,0,1.154,0.038,1.705,0.108v1.322H15.74V5.72C16.226,5.666,16.725,5.637,17.239,5.637z M8.156,34.985
			c-0.137-0.241-0.263-0.486-0.395-0.729h2.249v3.2C9.314,36.696,8.698,35.859,8.156,34.985z M17.239,51.013
			c-0.929-2.706-2.42-5.319-4.076-7.967c1.228,0.434,2.524,0.662,3.885,0.67l0.296,0.017l0.078-0.017
			c1.367-0.008,2.665-0.239,3.896-0.673C19.659,45.692,18.167,48.307,17.239,51.013z M24.675,37.23v-2.974h2.039
			c-0.129,0.238-0.251,0.48-0.385,0.717C25.839,35.765,25.289,36.528,24.675,37.23z"/>
	</g>
	<line fill="none" stroke="#FFFFFF" stroke-width="5" stroke-miterlimit="10" x1="5" y1="59.5" x2="30" y2="59.5"/>
	<g>
		<rect x="53.696" y="2.746" fill="#FFFFFF" width="3.856" height="15.162"/>
		<path fill="#FFFFFF" d="M39.52,56.426c0,10.57,6.925,18.542,16.115,18.542c9.175,0,16.096-7.972,16.096-18.542
			c0-4.085-1.028-7.764-2.515-11.147l0.007-0.002c-0.641-1.564-1.357-2.963-2.141-4.21c-1.096-1.934-2.273-3.771-3.409-5.539
			c-3.163-4.927-6.151-9.58-6.151-14.43v-1.445h-3.793v1.445c0,4.852-2.988,9.503-6.152,14.43c-1.138,1.771-2.319,3.614-3.418,5.554
			c-0.779,1.243-1.493,2.638-2.132,4.195l0.007,0.002C40.548,48.662,39.52,52.341,39.52,56.426z M68.67,53.864h-1.349v-4.029h0.507
			C68.218,51.133,68.507,52.474,68.67,53.864z M68.838,56.426c0,0.884-0.061,1.767-0.178,2.641h-1.34v-4.029h1.458
			C68.808,55.498,68.838,55.957,68.838,56.426z M63.257,69.473h-0.403v-4.027h3.205v0.901
			C65.283,67.536,64.348,68.598,63.257,69.473z M53.919,59.066v-4.027h3.205v4.027H53.919z M57.124,60.243v4.026h-3.205v-4.026
			H57.124z M53.919,53.864v-4.029h3.205v4.029H53.919z M53.919,48.66v-4.028h3.205v4.028H53.919z M53.919,65.444h3.205v4.028h-3.205
			V65.444z M58.387,64.27v-4.026h3.203v4.026H58.387L58.387,64.27z M61.59,65.444v4.028h-3.203v-4.027L61.59,65.444L61.59,65.444z
			 M58.387,59.066v-4.027h3.203v4.027H58.387z M58.387,53.864v-4.029h3.203v4.029H58.387z M58.387,48.66v-4.028h3.203v4.028H58.387z
			 M61.49,70.647c-0.945,0.513-1.98,0.897-3.104,1.139v-1.139H61.49z M66.059,55.037v4.029h-3.205v-4.029H66.059z M62.854,53.864
			v-4.029h3.204v4.029H62.854z M66.059,60.243v4.026h-3.205v-4.026H66.059z M68.471,60.243c-0.255,1.295-0.639,2.553-1.149,3.738
			v-3.738H68.471z M66.059,45.326v3.334h-3.205v-4.028h2.863C65.834,44.862,65.946,45.095,66.059,45.326z M61.59,43.458h-3.203
			V37.29c1.196,0.371,2.261,0.984,3.203,1.759V43.458z M57.124,43.458h-3.205v-6.427c0.506-0.091,1.032-0.141,1.583-0.141h0.254
			c0.473,0,0.928,0.039,1.368,0.107V43.458z M52.656,49.835v4.029h-3.205v-4.029H52.656z M49.451,48.66v-4.028h3.205v4.028H49.451z
			 M52.656,55.037v4.029h-3.205v-4.029H52.656z M52.656,60.243v4.026h-3.205v-4.026H52.656z M52.656,65.444v4.028h-3.205v-4.027
			L52.656,65.444L52.656,65.444z M49.451,43.458V39.23c0.941-0.812,2.004-1.471,3.205-1.877v6.103h-3.205V43.458z M52.656,70.647
			v1.095c-1.043-0.242-2.009-0.614-2.896-1.095H52.656z M42.41,56.426c0-0.469,0.017-0.931,0.045-1.389h1.267v4.029h-1.133
			C42.473,58.192,42.41,57.311,42.41,56.426z M44.985,59.066v-4.027h3.204v4.027H44.985z M48.189,60.243v4.026h-3.204v-4.026H48.189
			z M44.985,53.864v-4.029h3.204v4.029H44.985z M43.721,60.243v3.242c-0.409-1.038-0.724-2.129-0.94-3.245h0.94V60.243z
			 M44.985,66.024v-0.58h3.204v4.028h-0.194C46.804,68.518,45.798,67.346,44.985,66.024z M48.189,48.66h-3.204v-2.887
			c0.177-0.383,0.354-0.764,0.543-1.142h2.661V48.66z M43.721,49.835v4.029h-1.156c0.163-1.391,0.456-2.731,0.847-4.029H43.721z
			 M55.625,72.077c-0.589,0-1.156-0.038-1.706-0.108v-1.321h3.205v1.347C56.639,72.048,56.139,72.077,55.625,72.077z M64.709,42.729
			c0.135,0.241,0.261,0.485,0.392,0.729h-2.247v-3.2C63.549,41.018,64.165,41.854,64.709,42.729z M55.625,26.701
			c0.93,2.706,2.42,5.319,4.077,7.968c-1.229-0.435-2.524-0.663-3.886-0.671l-0.295-0.017l-0.079,0.017
			c-1.366,0.008-2.664,0.239-3.896,0.673C53.204,32.021,54.695,29.407,55.625,26.701z M48.189,40.484v2.974h-2.04
			c0.128-0.239,0.253-0.481,0.384-0.718C47.025,41.949,47.575,41.186,48.189,40.484z"/>
	</g>
	<line fill="none" stroke="#FFFFFF" stroke-width="5" stroke-miterlimit="10" x1="43" y1="17.5" x2="67" y2="17.5"/>
	<g>
		<rect x="94.025" y="59.807" fill="#FFFFFF" width="3.856" height="15.161"/>
		<path fill="#FFFFFF" d="M112.058,21.288c0-10.57-6.925-18.542-16.115-18.542c-9.175,0-16.095,7.972-16.095,18.542
			c0,4.085,1.027,7.765,2.515,11.147l-0.007,0.002c0.641,1.564,1.356,2.963,2.141,4.21c1.095,1.934,2.273,3.772,3.407,5.539
			c3.164,4.927,6.153,9.58,6.153,14.43v1.445h3.793v-1.445c0-4.851,2.987-9.503,6.152-14.43c1.138-1.771,2.318-3.614,3.418-5.554
			c0.779-1.243,1.493-2.637,2.132-4.195l-0.007-0.002C111.03,29.053,112.058,25.373,112.058,21.288z M82.907,23.85h1.35v4.029
			h-0.508C83.36,26.581,83.071,25.241,82.907,23.85z M82.738,21.288c0-0.884,0.062-1.767,0.179-2.64h1.341v4.028h-1.459
			C82.77,22.216,82.738,21.757,82.738,21.288z M88.321,8.241h0.402v4.027H85.52v-0.901C86.295,10.178,87.229,9.116,88.321,8.241z
			 M97.657,18.648v4.027h-3.203v-4.027H97.657z M94.454,17.472v-4.027h3.203v4.027H94.454z M97.657,23.85v4.029h-3.203V23.85H97.657
			z M97.657,29.054v4.028h-3.203v-4.028H97.657z M97.657,12.27h-3.203V8.241h3.203V12.27z M93.191,13.444v4.027h-3.205v-4.027
			H93.191L93.191,13.444z M89.986,12.27V8.241h3.205v4.027L89.986,12.27L89.986,12.27z M93.191,18.648v4.027h-3.205v-4.027H93.191z
			 M93.191,23.85v4.029h-3.205V23.85H93.191z M93.191,29.054v4.028h-3.205v-4.028H93.191z M90.088,7.067
			c0.945-0.514,1.98-0.898,3.104-1.14v1.14H90.088z M85.52,22.677v-4.028h3.204v4.028H85.52z M88.724,23.85v4.029H85.52V23.85
			H88.724z M85.52,17.472v-4.027h3.204v4.027H85.52z M83.107,17.472c0.254-1.295,0.638-2.554,1.149-3.739v3.739H83.107z
			 M85.52,32.388v-3.333h3.204v4.027h-2.864C85.743,32.852,85.631,32.619,85.52,32.388z M89.986,34.257h3.205v6.167
			c-1.195-0.371-2.261-0.984-3.205-1.759V34.257z M94.454,34.257h3.203v6.427c-0.504,0.09-1.03,0.14-1.581,0.14h-0.254
			c-0.475,0-0.928-0.039-1.368-0.106V34.257z M98.922,27.879V23.85h3.204v4.029H98.922z M102.126,29.054v4.028h-3.204v-4.028
			H102.126z M98.922,22.677v-4.028h3.204v4.028H98.922z M98.922,17.472v-4.027h3.204v4.027H98.922z M98.922,12.27V8.241h3.204v4.027
			L98.922,12.27L98.922,12.27z M102.126,34.257v4.227c-0.94,0.812-2.003,1.471-3.204,1.877v-6.103L102.126,34.257L102.126,34.257z
			 M98.922,7.067V5.972c1.043,0.242,2.009,0.614,2.896,1.096H98.922z M109.167,21.288c0,0.469-0.016,0.931-0.044,1.389h-1.267
			v-4.028h1.133C109.105,19.521,109.167,20.403,109.167,21.288z M106.593,18.648v4.027h-3.204v-4.027H106.593z M103.389,17.472
			v-4.027h3.204v4.027H103.389z M106.593,23.85v4.029h-3.204V23.85H106.593z M107.856,17.472v-3.243
			c0.41,1.038,0.724,2.129,0.94,3.245h-0.94V17.472z M106.593,11.689v0.58h-3.204V8.241h0.194
			C104.774,9.196,105.78,10.368,106.593,11.689z M103.389,29.054h3.204v2.887c-0.178,0.383-0.354,0.764-0.544,1.142h-2.66V29.054z
			 M107.856,27.879V23.85h1.157c-0.163,1.392-0.456,2.731-0.847,4.029H107.856z M95.953,5.637c0.589,0,1.155,0.038,1.704,0.108
			v1.322h-3.203V5.72C94.938,5.666,95.438,5.637,95.953,5.637z M86.869,34.985c-0.136-0.241-0.261-0.486-0.392-0.729h2.246v3.2
			C88.029,36.696,87.413,35.859,86.869,34.985z M95.953,51.013c-0.93-2.706-2.42-5.319-4.077-7.967
			c1.229,0.434,2.524,0.662,3.886,0.67l0.295,0.017l0.078-0.017c1.367-0.008,2.666-0.239,3.896-0.673
			C98.374,45.692,96.882,48.307,95.953,51.013z M103.389,37.23v-2.974h2.038c-0.128,0.238-0.251,0.48-0.384,0.717
			C104.553,35.765,104.003,36.528,103.389,37.23z"/>
	</g>
	<line fill="none" stroke="#FFFFFF" stroke-width="5" stroke-miterlimit="10" x1="83" y1="59.5" x2="108" y2="59.5"/>
	<g>
		<rect x="205.023" y="2.746" fill="#FFFFFF" width="3.858" height="15.161"/>
		<path fill="#FFFFFF" d="M190.85,56.426c0,10.57,6.924,18.542,16.113,18.542c9.176,0,16.095-7.972,16.095-18.542
			c0-4.085-1.025-7.765-2.515-11.147l0.008-0.002c-0.64-1.564-1.357-2.963-2.14-4.21c-1.096-1.934-2.275-3.772-3.408-5.539
			c-3.165-4.927-6.154-9.58-6.154-14.43v-1.445h-3.792v1.445c0,4.851-2.988,9.503-6.153,14.43c-1.136,1.771-2.316,3.614-3.418,5.554
			c-0.778,1.243-1.492,2.637-2.131,4.195l0.008,0.002C191.875,48.661,190.85,52.341,190.85,56.426z M220,53.864h-1.35v-4.029h0.507
			C219.547,51.133,219.834,52.473,220,53.864z M220.168,56.426c0,0.884-0.062,1.767-0.178,2.64h-1.341v-4.028h1.458
			C220.137,55.498,220.168,55.957,220.168,56.426z M214.585,69.473h-0.403v-4.027h3.204v0.901
			C216.612,67.536,215.678,68.598,214.585,69.473z M205.248,59.065v-4.027h3.204v4.027H205.248z M208.452,60.242v4.027h-3.204
			v-4.027H208.452z M205.248,53.864v-4.029h3.204v4.029H205.248z M205.248,48.66v-4.028h3.204v4.028H205.248z M205.248,65.444h3.204
			v4.028h-3.204V65.444z M209.714,64.27v-4.027h3.206v4.027H209.714L209.714,64.27z M212.92,65.444v4.028h-3.206v-4.027
			L212.92,65.444L212.92,65.444z M209.714,59.065v-4.027h3.206v4.027H209.714z M209.714,53.864v-4.029h3.206v4.029H209.714z
			 M209.714,48.66v-4.028h3.206v4.028H209.714z M212.819,70.646c-0.947,0.514-1.981,0.898-3.105,1.14v-1.14H212.819z
			 M217.386,55.037v4.028h-3.204v-4.028H217.386z M214.182,53.864v-4.029h3.205v4.029H214.182z M217.386,60.242v4.027h-3.204v-4.027
			H217.386z M219.798,60.242c-0.254,1.295-0.636,2.554-1.147,3.739v-3.739H219.798z M217.386,45.326v3.333h-3.204v-4.027h2.865
			C217.164,44.862,217.276,45.095,217.386,45.326z M212.92,43.457h-3.206V37.29c1.196,0.371,2.262,0.984,3.206,1.759V43.457z
			 M208.452,43.457h-3.204V37.03c0.506-0.09,1.031-0.14,1.583-0.14h0.254c0.473,0,0.926,0.039,1.367,0.106V43.457z M203.984,49.835
			v4.029h-3.205v-4.029H203.984z M200.779,48.66v-4.028h3.205v4.028H200.779z M203.984,55.037v4.028h-3.205v-4.028H203.984z
			 M203.984,60.242v4.027h-3.205v-4.027H203.984z M203.984,65.444v4.028h-3.205v-4.027L203.984,65.444L203.984,65.444z
			 M200.779,43.457V39.23c0.942-0.812,2.003-1.471,3.205-1.877v6.103L200.779,43.457L200.779,43.457z M203.984,70.646v1.096
			c-1.042-0.242-2.009-0.614-2.896-1.096H203.984z M193.738,56.426c0-0.469,0.018-0.931,0.046-1.389h1.267v4.028h-1.134
			C193.801,58.192,193.738,57.311,193.738,56.426z M196.313,59.065v-4.027h3.204v4.027H196.313z M199.518,60.242v4.027h-3.204
			v-4.027H199.518z M196.313,53.864v-4.029h3.204v4.029H196.313z M195.05,60.242v3.243c-0.41-1.038-0.724-2.129-0.94-3.245h0.94
			V60.242z M196.313,66.024v-0.58h3.204v4.028h-0.194C198.132,68.518,197.126,67.346,196.313,66.024z M199.518,48.66h-3.204v-2.887
			c0.178-0.383,0.354-0.764,0.544-1.142h2.66V48.66z M195.05,49.835v4.029h-1.156c0.163-1.392,0.455-2.731,0.847-4.029H195.05z
			 M206.953,72.077c-0.588,0-1.154-0.038-1.705-0.108v-1.322h3.204v1.348C207.967,72.048,207.468,72.077,206.953,72.077z
			 M216.036,42.729c0.137,0.241,0.263,0.486,0.395,0.729h-2.249v-3.2C214.878,41.018,215.494,41.854,216.036,42.729z
			 M206.953,26.701c0.929,2.706,2.42,5.319,4.076,7.967c-1.228-0.434-2.524-0.662-3.885-0.67l-0.296-0.017l-0.078,0.017
			c-1.367,0.008-2.665,0.239-3.896,0.673C204.533,32.021,206.025,29.407,206.953,26.701z M199.518,40.483v2.974h-2.039
			c0.129-0.238,0.251-0.48,0.385-0.717C198.354,41.949,198.903,41.186,199.518,40.483z"/>
	</g>
	<line fill="none" stroke="#FFFFFF" stroke-width="5" stroke-miterlimit="10" x1="219" y1="17.5" x2="194" y2="17.5"/>
	<g>
		<rect x="166.64" y="59.806" fill="#FFFFFF" width="3.856" height="15.162"/>
		<path fill="#FFFFFF" d="M184.673,21.288c0-10.57-6.925-18.542-16.115-18.542c-9.175,0-16.096,7.972-16.096,18.542
			c0,4.085,1.028,7.764,2.515,11.147l-0.007,0.002c0.641,1.564,1.357,2.963,2.141,4.21c1.096,1.934,2.273,3.771,3.409,5.539
			c3.163,4.927,6.151,9.58,6.151,14.43v1.445h3.793v-1.445c0-4.852,2.988-9.503,6.152-14.43c1.138-1.771,2.319-3.614,3.418-5.554
			c0.779-1.243,1.493-2.638,2.132-4.195l-0.007-0.002C183.645,29.052,184.673,25.373,184.673,21.288z M155.522,23.85h1.349v4.029
			h-0.507C155.975,26.581,155.686,25.24,155.522,23.85z M155.354,21.288c0-0.884,0.061-1.767,0.178-2.641h1.34v4.029h-1.458
			C155.385,22.216,155.354,21.757,155.354,21.288z M160.936,8.241h0.403v4.027h-3.205v-0.901
			C158.909,10.178,159.845,9.116,160.936,8.241z M170.273,18.647v4.027h-3.205v-4.027H170.273z M167.068,17.471v-4.026h3.205v4.026
			H167.068z M170.273,23.85v4.029h-3.205V23.85H170.273z M170.273,29.054v4.028h-3.205v-4.028H170.273z M170.273,12.27h-3.205V8.241
			h3.205V12.27z M165.806,13.444v4.026h-3.203v-4.026H165.806L165.806,13.444z M162.603,12.27V8.241h3.203v4.027L162.603,12.27
			L162.603,12.27z M165.806,18.647v4.027h-3.203v-4.027H165.806z M165.806,23.85v4.029h-3.203V23.85H165.806z M165.806,29.054v4.028
			h-3.203v-4.028H165.806z M162.702,7.066c0.945-0.513,1.98-0.897,3.104-1.139v1.139H162.702z M158.134,22.677v-4.029h3.205v4.029
			H158.134z M161.338,23.85v4.029h-3.204V23.85H161.338z M158.134,17.471v-4.026h3.205v4.026H158.134z M155.722,17.471
			c0.255-1.295,0.639-2.553,1.149-3.738v3.738H155.722z M158.134,32.388v-3.334h3.205v4.028h-2.863
			C158.358,32.852,158.246,32.619,158.134,32.388z M162.603,34.256h3.203v6.168c-1.196-0.371-2.261-0.984-3.203-1.759V34.256z
			 M167.068,34.256h3.205v6.427c-0.506,0.091-1.032,0.141-1.583,0.141h-0.254c-0.473,0-0.928-0.039-1.368-0.107V34.256z
			 M171.536,27.879V23.85h3.205v4.029H171.536z M174.741,29.054v4.028h-3.205v-4.028H174.741z M171.536,22.677v-4.029h3.205v4.029
			H171.536z M171.536,17.471v-4.026h3.205v4.026H171.536z M171.536,12.27V8.241h3.205v4.027L171.536,12.27L171.536,12.27z
			 M174.741,34.256v4.228c-0.941,0.812-2.004,1.471-3.205,1.877v-6.103h3.205V34.256z M171.536,7.066V5.972
			c1.043,0.242,2.009,0.614,2.896,1.095H171.536z M181.782,21.288c0,0.469-0.017,0.931-0.045,1.389h-1.267v-4.029h1.133
			C181.72,19.521,181.782,20.403,181.782,21.288z M179.207,18.647v4.027h-3.204v-4.027H179.207z M176.003,17.471v-4.026h3.204v4.026
			H176.003z M179.207,23.85v4.029h-3.204V23.85H179.207z M180.472,17.471v-3.242c0.409,1.038,0.724,2.129,0.94,3.245h-0.94V17.471z
			 M179.207,11.689v0.58h-3.204V8.241h0.194C177.389,9.196,178.395,10.368,179.207,11.689z M176.003,29.054h3.204v2.887
			c-0.177,0.383-0.354,0.764-0.543,1.142h-2.661V29.054z M180.472,27.879V23.85h1.156c-0.163,1.391-0.456,2.731-0.847,4.029H180.472
			z M168.567,5.637c0.589,0,1.156,0.038,1.706,0.108v1.321h-3.205V5.72C167.554,5.666,168.054,5.637,168.567,5.637z M159.483,34.984
			c-0.135-0.241-0.261-0.485-0.392-0.729h2.247v3.2C160.644,36.696,160.027,35.859,159.483,34.984z M168.567,51.013
			c-0.93-2.706-2.42-5.319-4.077-7.968c1.229,0.435,2.524,0.663,3.886,0.671l0.295,0.017l0.079-0.017
			c1.366-0.008,2.664-0.239,3.896-0.673C170.988,45.692,169.497,48.307,168.567,51.013z M176.003,37.229v-2.974h2.04
			c-0.128,0.239-0.253,0.481-0.384,0.718C177.167,35.765,176.617,36.528,176.003,37.229z"/>
	</g>
	<line fill="none" stroke="#FFFFFF" stroke-width="5" stroke-miterlimit="10" x1="181" y1="59.5" x2="157" y2="59.5"/>
	<g>
		<rect x="126.311" y="2.746" fill="#FFFFFF" width="3.856" height="15.161"/>
		<path fill="#FFFFFF" d="M112.135,56.426c0,10.57,6.925,18.542,16.115,18.542c9.175,0,16.095-7.972,16.095-18.542
			c0-4.085-1.027-7.765-2.515-11.147l0.007-0.002c-0.641-1.564-1.356-2.963-2.141-4.21c-1.095-1.934-2.273-3.772-3.407-5.539
			c-3.164-4.927-6.153-9.58-6.153-14.43v-1.445h-3.793v1.445c0,4.851-2.987,9.503-6.152,14.43c-1.138,1.771-2.318,3.614-3.418,5.554
			c-0.779,1.243-1.493,2.637-2.132,4.195l0.007,0.002C113.162,48.661,112.135,52.341,112.135,56.426z M141.285,53.864h-1.35v-4.029
			h0.508C140.832,51.133,141.121,52.473,141.285,53.864z M141.454,56.426c0,0.884-0.062,1.767-0.179,2.64h-1.341v-4.028h1.459
			C141.423,55.498,141.454,55.957,141.454,56.426z M135.871,69.473h-0.402v-4.027h3.204v0.901
			C137.897,67.536,136.964,68.598,135.871,69.473z M126.535,59.065v-4.027h3.203v4.027H126.535z M129.738,60.242v4.027h-3.203
			v-4.027H129.738z M126.535,53.864v-4.029h3.203v4.029H126.535z M126.535,48.66v-4.028h3.203v4.028H126.535z M126.535,65.444h3.203
			v4.028h-3.203V65.444z M131.001,64.27v-4.027h3.205v4.027H131.001L131.001,64.27z M134.206,65.444v4.028h-3.205v-4.027
			L134.206,65.444L134.206,65.444z M131.001,59.065v-4.027h3.205v4.027H131.001z M131.001,53.864v-4.029h3.205v4.029H131.001z
			 M131.001,48.66v-4.028h3.205v4.028H131.001z M134.104,70.646c-0.945,0.514-1.98,0.898-3.104,1.14v-1.14H134.104z M138.673,55.037
			v4.028h-3.204v-4.028H138.673z M135.469,53.864v-4.029h3.204v4.029H135.469z M138.673,60.242v4.027h-3.204v-4.027H138.673z
			 M141.085,60.242c-0.254,1.295-0.638,2.554-1.149,3.739v-3.739H141.085z M138.673,45.326v3.333h-3.204v-4.027h2.864
			C138.449,44.862,138.562,45.095,138.673,45.326z M134.206,43.457h-3.205V37.29c1.195,0.371,2.261,0.984,3.205,1.759V43.457z
			 M129.738,43.457h-3.203V37.03c0.504-0.09,1.03-0.14,1.581-0.14h0.254c0.475,0,0.928,0.039,1.368,0.106V43.457z M125.271,49.835
			v4.029h-3.204v-4.029H125.271z M122.066,48.66v-4.028h3.204v4.028H122.066z M125.271,55.037v4.028h-3.204v-4.028H125.271z
			 M125.271,60.242v4.027h-3.204v-4.027H125.271z M125.271,65.444v4.028h-3.204v-4.027L125.271,65.444L125.271,65.444z
			 M122.066,43.457V39.23c0.94-0.812,2.003-1.471,3.204-1.877v6.103L122.066,43.457L122.066,43.457z M125.271,70.646v1.096
			c-1.043-0.242-2.009-0.614-2.896-1.096H125.271z M115.025,56.426c0-0.469,0.016-0.931,0.044-1.389h1.267v4.028h-1.133
			C115.087,58.192,115.025,57.311,115.025,56.426z M117.6,59.065v-4.027h3.204v4.027H117.6z M120.804,60.242v4.027H117.6v-4.027
			H120.804z M117.6,53.864v-4.029h3.204v4.029H117.6z M116.336,60.242v3.243c-0.41-1.038-0.724-2.129-0.94-3.245h0.94V60.242z
			 M117.6,66.024v-0.58h3.204v4.028h-0.194C119.418,68.518,118.412,67.346,117.6,66.024z M120.804,48.66H117.6v-2.887
			c0.178-0.383,0.354-0.764,0.544-1.142h2.66V48.66z M116.336,49.835v4.029h-1.157c0.163-1.392,0.456-2.731,0.847-4.029H116.336z
			 M128.239,72.077c-0.589,0-1.155-0.038-1.704-0.108v-1.322h3.203v1.348C129.254,72.048,128.754,72.077,128.239,72.077z
			 M137.323,42.729c0.136,0.241,0.261,0.486,0.392,0.729h-2.246v-3.2C136.163,41.018,136.779,41.854,137.323,42.729z
			 M128.239,26.701c0.93,2.706,2.42,5.319,4.077,7.967c-1.229-0.434-2.524-0.662-3.886-0.67l-0.295-0.017l-0.078,0.017
			c-1.367,0.008-2.666,0.239-3.896,0.673C125.818,32.021,127.311,29.407,128.239,26.701z M120.804,40.483v2.974h-2.038
			c0.128-0.238,0.251-0.48,0.384-0.717C119.64,41.949,120.189,41.186,120.804,40.483z"/>
	</g>
	<line fill="none" stroke="#FFFFFF" stroke-width="5" stroke-miterlimit="10" x1="141" y1="17.5" x2="116" y2="17.5"/>
</g>
</svg>
