<?xml version="1.0" encoding="utf-8"?>
<!-- Generator: Adobe Illustrator 15.0.0, SVG Export Plug-In . SVG Version: 6.00 Build 0)  -->
<!DOCTYPE svg PUBLIC "-//W3C//DTD SVG 1.1//EN" "http://www.w3.org/Graphics/SVG/1.1/DTD/svg11.dtd">
<svg version="1.1" xmlns="http://www.w3.org/2000/svg" xmlns:xlink="http://www.w3.org/1999/xlink" x="0px" y="0px" width="224px"
	 height="78px" viewBox="0 0 224 78" enable-background="new 0 0 224 78" xml:space="preserve">
<g id="Layer_2" display="none">
	<rect x="-11" y="-9" display="inline" fill="#00A0B0" width="248" height="94"/>
</g>
<g id="Layer_1">
	<path fill="#EDC951" d="M108.497,34.035v3.609h3.208v2.738l3.737,0.002v-2.74h2.957v-3.609h-2.957v-5.57
		c7.002-0.918,12.427-6.92,12.428-14.17C127.869,6.412,121.455,0,113.572,0c-7.882,0-14.295,6.412-14.295,14.295
		c0,7.25,5.425,13.252,12.427,14.172v5.568H108.497z M103.014,14.295c0-5.822,4.736-10.557,10.558-10.557
		c5.822,0,10.559,4.736,10.561,10.557c-0.002,5.822-4.738,10.561-10.561,10.561C107.75,24.855,103.014,20.117,103.014,14.295z"/>
	<path fill="#FFFFFF" d="M36.02,12.12l6.388-5.156l2.886,3.577L47.74-0.33L36.596-0.237l2.888,3.578l-6.389,5.155
		C26.724,2.426,16.658,1.86,9.627,7.533c-7.645,6.17-8.845,17.407-2.676,25.051c6.169,7.646,17.407,8.846,25.051,2.677
		C39.033,29.588,40.608,19.629,36.02,12.12z M10.575,29.66c-4.556-5.646-3.67-13.945,1.976-18.503
		c5.646-4.557,13.947-3.671,18.504,1.976c4.556,5.648,3.669,13.946-1.978,18.503C23.432,36.192,15.131,35.307,10.575,29.66z"/>
	<path fill="#FFFFFF" d="M80.12,12.12l6.388-5.156l2.886,3.577L91.839-0.33L80.696-0.237l2.888,3.578l-6.389,5.155
		c-6.371-6.07-16.437-6.636-23.467-0.963c-7.645,6.17-8.845,17.407-2.676,25.051c6.169,7.646,17.407,8.846,25.051,2.677
		C83.133,29.588,84.708,19.629,80.12,12.12z M54.675,29.66c-4.556-5.646-3.67-13.945,1.976-18.503
		c5.646-4.557,13.947-3.671,18.504,1.976c4.556,5.648,3.669,13.946-1.978,18.503C67.531,36.192,59.231,35.307,54.675,29.66z"/>
	<path fill="#FFFFFF" d="M168.318,12.12l6.389-5.156l2.886,3.577l2.446-10.871l-11.145,0.093l2.889,3.578l-6.39,5.155
		c-6.37-6.07-16.437-6.636-23.468-0.963c-7.645,6.17-8.844,17.407-2.676,25.051c6.17,7.646,17.408,8.846,25.052,2.677
		C171.332,29.588,172.906,19.629,168.318,12.12z M142.874,29.66c-4.556-5.646-3.671-13.945,1.976-18.503
		c5.646-4.557,13.947-3.671,18.504,1.976c4.557,5.648,3.67,13.946-1.977,18.503S147.43,35.307,142.874,29.66z"/>
	<path fill="#FFFFFF" d="M212.418,12.12l6.389-5.156l2.886,3.577l2.446-10.871l-11.145,0.093l2.889,3.578l-6.39,5.155
		c-6.37-6.07-16.437-6.636-23.468-0.963c-7.645,6.17-8.844,17.407-2.676,25.051c6.17,7.646,17.408,8.846,25.052,2.677
		C215.432,29.588,217.006,19.629,212.418,12.12z M186.974,29.66c-4.556-5.646-3.671-13.945,1.976-18.503
		c5.646-4.557,13.947-3.671,18.504,1.976c4.557,5.648,3.67,13.946-1.977,18.503S191.529,35.307,186.974,29.66z"/>
	<path fill="#FFFFFF" d="M34.874,50.654l6.388-5.156l2.886,3.577l2.446-10.871L35.45,38.297l2.888,3.578l-6.389,5.155
		c-6.371-6.07-16.437-6.636-23.467-0.963c-7.645,6.17-8.845,17.407-2.676,25.051c6.169,7.646,17.407,8.846,25.051,2.677
		C37.887,68.122,39.462,58.163,34.874,50.654z M9.429,68.194c-4.556-5.646-3.67-13.945,1.976-18.503
		c5.646-4.557,13.947-3.671,18.504,1.976c4.556,5.648,3.669,13.946-1.978,18.503C22.286,74.727,13.985,73.841,9.429,68.194z"/>
	<path fill="#FFFFFF" d="M78.974,50.654l6.388-5.156l2.886,3.577l2.446-10.871L79.55,38.297l2.888,3.578l-6.389,5.155
		c-6.371-6.07-16.437-6.636-23.467-0.963c-7.645,6.17-8.845,17.407-2.676,25.051c6.169,7.646,17.407,8.846,25.051,2.677
		C81.987,68.122,83.562,58.163,78.974,50.654z M53.529,68.194c-4.556-5.646-3.67-13.945,1.976-18.503
		c5.646-4.557,13.947-3.671,18.504,1.976c4.556,5.648,3.669,13.946-1.978,18.503C66.385,74.727,58.085,73.841,53.529,68.194z"/>
	<path fill="#FFFFFF" d="M167.173,50.654l6.388-5.156l2.887,3.577l2.445-10.871l-11.144,0.093l2.888,3.578l-6.389,5.155
		c-6.371-6.07-16.438-6.636-23.468-0.963c-7.645,6.17-8.845,17.407-2.676,25.051c6.169,7.646,17.407,8.846,25.052,2.677
		C170.186,68.122,171.761,58.163,167.173,50.654z M141.729,68.194c-4.557-5.646-3.671-13.945,1.976-18.503
		c5.646-4.557,13.946-3.671,18.504,1.976c4.556,5.648,3.669,13.946-1.978,18.503S146.284,73.841,141.729,68.194z"/>
	<path fill="#FFFFFF" d="M211.272,50.654l6.388-5.156l2.887,3.577l2.445-10.871l-11.144,0.093l2.888,3.578l-6.389,5.155
		c-6.371-6.07-16.438-6.636-23.468-0.963c-7.645,6.17-8.845,17.407-2.676,25.051c6.169,7.646,17.407,8.846,25.052,2.677
		C214.285,68.122,215.86,58.163,211.272,50.654z M185.828,68.194c-4.557-5.646-3.671-13.945,1.976-18.503
		c5.646-4.557,13.946-3.671,18.504,1.976c4.556,5.648,3.669,13.946-1.978,18.503S190.384,73.841,185.828,68.194z"/>
	<path fill="#FFFFFF" d="M124.219,50.654l6.389-5.156l2.886,3.577l2.446-10.871l-11.145,0.093l2.889,3.578l-6.39,5.155
		c-6.37-6.07-16.437-6.636-23.467-0.963c-7.645,6.17-8.845,17.407-2.676,25.051c6.169,7.646,17.407,8.846,25.051,2.677
		C127.232,68.122,128.807,58.163,124.219,50.654z M98.774,68.194c-4.556-5.646-3.67-13.945,1.976-18.503
		c5.646-4.557,13.947-3.671,18.503,1.976c4.557,5.648,3.67,13.946-1.977,18.503S103.331,73.841,98.774,68.194z"/>
</g>
</svg>
