<?xml version="1.0" encoding="utf-8"?>
<!-- Generator: Adobe Illustrator 15.0.0, SVG Export Plug-In . SVG Version: 6.00 Build 0)  -->
<!DOCTYPE svg PUBLIC "-//W3C//DTD SVG 1.1//EN" "http://www.w3.org/Graphics/SVG/1.1/DTD/svg11.dtd">
<svg version="1.1" id="Layer_1" xmlns="http://www.w3.org/2000/svg" xmlns:xlink="http://www.w3.org/1999/xlink" x="0px" y="0px"
	 width="260px" height="260px" viewBox="0 0 260 260" enable-background="new 0 0 260 260" xml:space="preserve">
<g>
	<polygon fill="#666666" points="0,0 0,20.599 20.599,0 	"/>
	<polygon fill="#4D4D4D" points="20.599,0 0,20.599 0,54.54 54.54,0 	"/>
	<polygon fill="#666666" points="54.54,0 0,54.54 0,89.896 89.896,0 	"/>
	<polygon fill="#4D4D4D" points="89.896,0 0,89.896 0,125.251 125.251,0 	"/>
	<polygon fill="#666666" points="125.251,0 0,125.251 0,160.605 160.605,0 	"/>
	<polygon fill="#4D4D4D" points="160.605,0 0,160.605 0,194.547 194.547,0 	"/>
	<polygon fill="#666666" points="194.547,0 0,194.547 0,229.902 229.902,0 	"/>
	<polygon fill="#4D4D4D" points="260,0 229.902,0 0,229.902 0,260 5.258,260 260,5.259 	"/>
	<polygon fill="#666666" points="260,5.259 5.258,260 40.613,260 260,40.613 	"/>
	<polygon fill="#4D4D4D" points="260,40.613 40.613,260 74.555,260 260,74.555 	"/>
	<polygon fill="#666666" points="260,74.555 74.555,260 109.91,260 260,109.91 	"/>
	<polygon fill="#4D4D4D" points="260,109.91 109.91,260 145.266,260 260,145.266 	"/>
	<polygon fill="#666666" points="260,145.266 145.266,260 180.621,260 260,180.621 	"/>
	<polygon fill="#4D4D4D" points="260,180.621 180.621,260 214.562,260 260,214.562 	"/>
	<polygon fill="#666666" points="260,214.562 214.562,260 249.917,260 260,249.917 	"/>
	<polygon fill="#4D4D4D" points="260,249.917 249.917,260 260,260 	"/>
</g>
<g>
	<path fill="#FFFFFF" d="M210.812,57.537c-0.013-0.321-0.045-0.64-0.1-0.96c-0.019-0.12-0.033-0.24-0.059-0.355
		c-0.088-0.391-0.197-0.775-0.357-1.152c0-0.003-0.004-0.006-0.004-0.013c-0.026-0.065-0.067-0.124-0.096-0.189
		c-0.145-0.312-0.308-0.617-0.491-0.901c-0.069-0.107-0.147-0.21-0.222-0.314c-0.175-0.239-0.358-0.464-0.559-0.678
		c-0.085-0.09-0.166-0.18-0.256-0.264c-0.266-0.255-0.552-0.494-0.851-0.706c-0.035-0.02-0.059-0.046-0.089-0.067
		c-0.332-0.223-0.686-0.408-1.058-0.571c-0.113-0.052-0.233-0.094-0.351-0.14c-0.279-0.105-0.561-0.195-0.854-0.263
		c-0.122-0.032-0.248-0.064-0.377-0.085c-0.412-0.075-0.829-0.128-1.261-0.128h-30.332c-3.866,0-6.999,3.134-6.999,7
		c0,3.867,3.133,7.001,6.999,7.001h13.432l-27.153,27.155c-8.348-9.473-20.524-15.491-34.112-15.491
		c-25.087,0-45.498,20.416-45.498,45.501c0,22.701,16.73,41.52,38.5,44.904v16.932h-12.834c-3.863,0-6.999,3.129-6.999,7
		c0,3.863,3.136,6.998,6.999,6.998h12.834v14.001c0,3.863,3.136,6.999,7.001,6.999c3.866,0,7.001-3.136,7.001-6.999V197.75h15.165
		c3.867,0,7.001-3.135,7.001-6.998c0-3.871-3.134-7-7.001-7h-15.167V166.82c21.77-3.385,38.498-22.203,38.498-44.902
		c0-6.362-1.32-12.416-3.686-17.916l29.354-29.354v13.434c0,3.869,3.137,7.002,7,7.002c3.867,0,7-3.137,7-7.002v-30.33
		C210.832,57.678,210.812,57.61,210.812,57.537z M125.664,153.418c-17.367,0-31.498-14.131-31.498-31.5
		c0-17.371,14.131-31.5,31.498-31.5c17.37,0,31.5,14.129,31.5,31.5C157.164,139.287,143.034,153.418,125.664,153.418z"/>
	<rect x="103.501" y="125.418" fill="#FFFFFF" width="44.33" height="9.334"/>
	<rect x="103.501" y="111.418" fill="#FFFFFF" width="44.33" height="9.334"/>
</g>
</svg>
