<?xml version="1.0" encoding="utf-8"?>
<!-- Generator: Adobe Illustrator 15.0.0, SVG Export Plug-In . SVG Version: 6.00 Build 0)  -->
<!DOCTYPE svg PUBLIC "-//W3C//DTD SVG 1.1//EN" "http://www.w3.org/Graphics/SVG/1.1/DTD/svg11.dtd">
<svg version="1.1" xmlns="http://www.w3.org/2000/svg" xmlns:xlink="http://www.w3.org/1999/xlink" x="0px" y="0px" width="224px"
	 height="78px" viewBox="0 0 224 78" enable-background="new 0 0 224 78" xml:space="preserve">
<g id="Layer_2" display="none">
	<rect x="-11" y="-9" display="inline" fill="#00A0B0" width="248" height="94"/>
</g>
<g id="boards" display="none">
	<path display="inline" fill="#EDC951" d="M108.497,34.035v3.609h3.208v2.738l3.737,0.002v-2.74h2.957v-3.609h-2.957v-5.57
		c7.002-0.918,12.427-6.92,12.428-14.17C127.869,6.412,121.455,0,113.572,0c-7.882,0-14.295,6.412-14.295,14.295
		c0,7.25,5.425,13.252,12.427,14.172v5.568H108.497z M103.014,14.295c0-5.822,4.736-10.557,10.558-10.557
		c5.822,0,10.559,4.736,10.561,10.557c-0.002,5.822-4.738,10.561-10.561,10.561C107.75,24.855,103.014,20.117,103.014,14.295z"/>
	<path display="inline" fill="#FFFFFF" d="M36.02,12.12l6.388-5.156l2.886,3.577L47.74-0.33L36.596-0.237l2.888,3.578l-6.389,5.155
		C26.724,2.426,16.658,1.86,9.627,7.533c-7.645,6.17-8.845,17.407-2.676,25.051c6.169,7.646,17.407,8.846,25.051,2.677
		C39.033,29.588,40.608,19.629,36.02,12.12z M10.575,29.66c-4.556-5.646-3.67-13.945,1.976-18.503
		c5.646-4.557,13.947-3.671,18.504,1.976c4.556,5.648,3.669,13.946-1.978,18.503C23.432,36.192,15.131,35.307,10.575,29.66z"/>
	<path display="inline" fill="#FFFFFF" d="M80.12,12.12l6.388-5.156l2.886,3.577L91.839-0.33L80.696-0.237l2.888,3.578l-6.389,5.155
		c-6.371-6.07-16.437-6.636-23.467-0.963c-7.645,6.17-8.845,17.407-2.676,25.051c6.169,7.646,17.407,8.846,25.051,2.677
		C83.133,29.588,84.708,19.629,80.12,12.12z M54.675,29.66c-4.556-5.646-3.67-13.945,1.976-18.503
		c5.646-4.557,13.947-3.671,18.504,1.976c4.556,5.648,3.669,13.946-1.978,18.503C67.531,36.192,59.231,35.307,54.675,29.66z"/>
	<path display="inline" fill="#FFFFFF" d="M168.318,12.12l6.389-5.156l2.886,3.577l2.446-10.871l-11.145,0.093l2.889,3.578
		l-6.39,5.155c-6.37-6.07-16.437-6.636-23.468-0.963c-7.645,6.17-8.844,17.407-2.676,25.051c6.17,7.646,17.408,8.846,25.052,2.677
		C171.332,29.588,172.906,19.629,168.318,12.12z M142.874,29.66c-4.556-5.646-3.671-13.945,1.976-18.503
		c5.646-4.557,13.947-3.671,18.504,1.976c4.557,5.648,3.67,13.946-1.977,18.503S147.43,35.307,142.874,29.66z"/>
	<path display="inline" fill="#FFFFFF" d="M212.418,12.12l6.389-5.156l2.886,3.577l2.446-10.871l-11.145,0.093l2.889,3.578
		l-6.39,5.155c-6.37-6.07-16.437-6.636-23.468-0.963c-7.645,6.17-8.844,17.407-2.676,25.051c6.17,7.646,17.408,8.846,25.052,2.677
		C215.432,29.588,217.006,19.629,212.418,12.12z M186.974,29.66c-4.556-5.646-3.671-13.945,1.976-18.503
		c5.646-4.557,13.947-3.671,18.504,1.976c4.557,5.648,3.67,13.946-1.977,18.503S191.529,35.307,186.974,29.66z"/>
	<path display="inline" fill="#FFFFFF" d="M34.874,50.654l6.388-5.156l2.886,3.577l2.446-10.871L35.45,38.297l2.888,3.578
		l-6.389,5.155c-6.371-6.07-16.437-6.636-23.467-0.963c-7.645,6.17-8.845,17.407-2.676,25.051
		c6.169,7.646,17.407,8.846,25.051,2.677C37.887,68.122,39.462,58.163,34.874,50.654z M9.429,68.194
		c-4.556-5.646-3.67-13.945,1.976-18.503c5.646-4.557,13.947-3.671,18.504,1.976c4.556,5.648,3.669,13.946-1.978,18.503
		C22.286,74.727,13.985,73.841,9.429,68.194z"/>
	<path display="inline" fill="#FFFFFF" d="M78.974,50.654l6.388-5.156l2.886,3.577l2.446-10.871L79.55,38.297l2.888,3.578
		l-6.389,5.155c-6.371-6.07-16.437-6.636-23.467-0.963c-7.645,6.17-8.845,17.407-2.676,25.051
		c6.169,7.646,17.407,8.846,25.051,2.677C81.987,68.122,83.562,58.163,78.974,50.654z M53.529,68.194
		c-4.556-5.646-3.67-13.945,1.976-18.503c5.646-4.557,13.947-3.671,18.504,1.976c4.556,5.648,3.669,13.946-1.978,18.503
		C66.385,74.727,58.085,73.841,53.529,68.194z"/>
	<path display="inline" fill="#FFFFFF" d="M167.173,50.654l6.388-5.156l2.887,3.577l2.445-10.871l-11.144,0.093l2.888,3.578
		l-6.389,5.155c-6.371-6.07-16.438-6.636-23.468-0.963c-7.645,6.17-8.845,17.407-2.676,25.051
		c6.169,7.646,17.407,8.846,25.052,2.677C170.186,68.122,171.761,58.163,167.173,50.654z M141.729,68.194
		c-4.557-5.646-3.671-13.945,1.976-18.503c5.646-4.557,13.946-3.671,18.504,1.976c4.556,5.648,3.669,13.946-1.978,18.503
		S146.284,73.841,141.729,68.194z"/>
	<path display="inline" fill="#FFFFFF" d="M211.272,50.654l6.388-5.156l2.887,3.577l2.445-10.871l-11.144,0.093l2.888,3.578
		l-6.389,5.155c-6.371-6.07-16.438-6.636-23.468-0.963c-7.645,6.17-8.845,17.407-2.676,25.051
		c6.169,7.646,17.407,8.846,25.052,2.677C214.285,68.122,215.86,58.163,211.272,50.654z M185.828,68.194
		c-4.557-5.646-3.671-13.945,1.976-18.503c5.646-4.557,13.946-3.671,18.504,1.976c4.556,5.648,3.669,13.946-1.978,18.503
		S190.384,73.841,185.828,68.194z"/>
	<path display="inline" fill="#FFFFFF" d="M124.219,50.654l6.389-5.156l2.886,3.577l2.446-10.871l-11.145,0.093l2.889,3.578
		l-6.39,5.155c-6.37-6.07-16.437-6.636-23.467-0.963c-7.645,6.17-8.845,17.407-2.676,25.051c6.169,7.646,17.407,8.846,25.051,2.677
		C127.232,68.122,128.807,58.163,124.219,50.654z M98.774,68.194c-4.556-5.646-3.67-13.945,1.976-18.503
		c5.646-4.557,13.947-3.671,18.503,1.976c4.557,5.648,3.67,13.946-1.977,18.503S103.331,73.841,98.774,68.194z"/>
</g>
<g id="Layer_3">
	<path fill="#FFFFFF" d="M93.401,5.711c0,0-9.235,10.247-12.669,20.125c-2.908,8.371-1.949,17.742-3.308,20.262
		c-0.824,1.531-1.167,2.5-3.675,3.918c-2.438,1.533-3.452,1.377-5.189,1.375c-2.862,0-10.658-5.289-19.407-6.699
		c-10.323-1.664-23.727,1.605-23.727,1.605s-0.673-1.457-2.284-3.737c-2.157-3.054-9.001-15.459-11.132-19.03
		c-2.133-3.57-4.267-5.469-4.933-4.905c-0.664,0.564-0.003,1.672-1.506,2.235c-1.5,0.563-2.063,0.983-1.084,1.817
		c2.552,2.318,5.838,6.702,9.366,12.611s8.535,11.452,9.96,14.442c1.787,3.756,3.97,9.098,6.175,13.105
		c1.681,3.057,5.881,9.635,10.511,12.324c4.571,2.656,12.942,4.965,22.277-1.777c8.955-6.469,8.127-15.393,13.735-18.742
		c5.609-3.35,13.074,1.615,23.015-3.199c10.363-5.02,12.305-13.486,12.134-18.769c-0.173-5.352-3.971-12.169-5.864-15.1
		c-2.481-3.843-6.149-8.297-8.605-11.653c-0.989-1.352-2.119-3.819-3.449-6.691h-4.055c0.665,1.129,1.194,2.067,1.509,2.699
		C92.44,4.428,93.401,5.711,93.401,5.711z"/>
	<g>
		<path fill="#EDC951" d="M164.842,52.403l-3.689,7.203l-0.467-6.869l-2.336,6.58c0.4-0.932-1.201-5.312-0.756-7.98
			s-0.777-7.314-0.777-7.314s-0.268,1.045-0.668,2.289c-0.4,1.246-0.533,3.691-0.533,5.092c0,1.402-1.156,5.227-1.156,5.227
			c-1.557-1.357-2.668-7.648-2.668-7.648c-0.021,2.557-1.488,2.957-0.6,5.691c0.887,2.734,1.49,4.713,1.49,4.713
			c-1.002-0.4-5.047-5.914-4.691-5.291c0.01,0.02,0.021,0.039,0.031,0.059c0.312,0.584,0.176,0.943,1.057,3.654
			c0.912,2.801,2.047,4.891,2.047,4.891c-1.135-1.355-5.604-4.402-5.604-4.402c1.777,4.336,6.293,9.516,6.293,9.516
			c-9.562-4.135-12.23-13.428-12.809-17.342c-0.576-3.912-1.051-5.646-1.051-5.646l3.438,5.52
			c-3.236-9.105-0.584-17.459,0.75-19.827c1.334-2.368,1.334-4.347,1.334-4.347c0.912,1.979,0.623,8.494,0.623,8.494
			s0.732-2.091,2.422-5.981c1.689-3.89,3.424-14.073,3.424-14.073l0.701,13.606c0.701-11.273,5.27-14.108,9.037-17.976
			C163.451,6.37,166.889,0,166.889,0c-1.535,2.635-0.834,11.573-0.867,13.974s1.467,8.404,1.467,8.404l2.936-5.47
			c-0.035,0.767-0.201,3.069-0.268,5.87c-0.066,2.801-2.66,11.215-2.66,11.215c1.268-1,1.904-2.421,1.904-2.421
			c0.377,2.912-2.09,10.449-2.09,10.449c3.535-2.134,4.412-10.038,4.412-10.038c3.414,14.241-3.635,21.645-3.635,21.645
			c1.434-1.436,3.803-2.301,3.803-2.301c-1.27,0.666-3.736,6.236-5.17,8.369c-1.436,2.137-2.102,1-3.469,3.137L164.842,52.403z"/>
		<path fill="#FFFFFF" d="M168.752,67.044l44.561-32.015c0.953-0.685,1.172-2.026,0.486-2.979l-0.621-0.866
			c-0.686-0.953-2.025-1.173-2.98-0.488L165.639,62.71c-0.047,0.035-0.084,0.076-0.127,0.113c0.26,1.846,1.432,3.471,3.119,4.289
			C168.672,67.089,168.713,67.071,168.752,67.044z"/>
		<path fill="#CC333F" d="M153.822,69.952c-0.201-0.197-0.422-0.523-0.555-1.057c0,0-0.018,1.283,0.705,2.711
			c1.189,2.354,2.918,4.477,5.672,4.477c3.217,0,5.82-2.604,5.82-5.822c0-0.043-0.008-0.084-0.008-0.127
			c-2.033-1.533-3.453-3.779-3.955-6.283c-0.078,0.203-0.174,0.475-0.264,0.803c-0.17,0.623-0.314,1.436-0.262,2.293
			c0,0-0.709-0.773-1.211-2.512c-0.164-0.561-0.305-1.227-0.391-2.002l-0.383,2.039l-0.24,1.275c0,0-0.273-0.301-0.502-1.148
			c-0.107-0.379-0.197-0.875-0.256-1.5l-0.48,1.74l-0.25,0.906l-0.135-0.742l-0.623-3.414l-0.139,3.852l-0.039,0.973
			c0,0-0.191-0.256-0.438-0.613c-0.342-0.514-0.783-1.238-0.875-1.725l0.24,2.354l0.139,1.361c0,0-0.305-0.246-0.629-0.715
			c-0.316-0.449-0.658-1.105-0.77-1.949c0,0-0.09,1.752,0.293,2.83c0.055,0.143,0.113,0.275,0.184,0.389
			c0,0-0.104-0.086-0.252-0.225c-0.336-0.32-0.908-0.924-1.062-1.457c0,0.107,0.021,1.121,0.832,2.156
			c0.033,0.041,0.07,0.092,0.107,0.133C155.062,70.095,154.082,70.216,153.822,69.952z"/>
	</g>
</g>
</svg>
