<?xml version="1.0" encoding="utf-8"?>
<!-- Generator: Adobe Illustrator 15.0.0, SVG Export Plug-In . SVG Version: 6.00 Build 0)  -->
<!DOCTYPE svg PUBLIC "-//W3C//DTD SVG 1.1//EN" "http://www.w3.org/Graphics/SVG/1.1/DTD/svg11.dtd">
<svg version="1.1" id="Layer_1" xmlns="http://www.w3.org/2000/svg" xmlns:xlink="http://www.w3.org/1999/xlink" x="0px" y="0px"
	 width="368.33px" height="156px" viewBox="0 0 368.33 156" enable-background="new 0 0 368.33 156" xml:space="preserve">
<g>
	<path fill="#00A0B0" d="M108.503,125.113c-4.862,2.57-6.685,8.624-4.05,13.452l1.087,1.99c2.634,4.828,8.91,6.969,13.946,4.757
		L359.174,40.022c5.036-2.212,6.976-7.959,4.312-12.771l-10.98-19.835c-2.664-4.812-8.821-6.646-13.684-4.075L108.503,125.113z"/>
</g>
<g>
	<path fill="#666666" d="M116.366,9.978c-0.012-0.282-0.04-0.561-0.088-0.842c-0.017-0.105-0.029-0.209-0.051-0.312
		c-0.077-0.343-0.174-0.68-0.313-1.011c0-0.002-0.004-0.006-0.004-0.011c-0.023-0.058-0.059-0.109-0.084-0.167
		c-0.127-0.274-0.27-0.542-0.431-0.791c-0.062-0.093-0.13-0.184-0.194-0.275c-0.153-0.211-0.314-0.408-0.49-0.595
		c-0.074-0.079-0.146-0.158-0.225-0.231c-0.233-0.224-0.484-0.433-0.746-0.619c-0.031-0.017-0.052-0.041-0.078-0.059
		c-0.291-0.195-0.602-0.358-0.928-0.5c-0.1-0.046-0.205-0.082-0.308-0.123c-0.245-0.092-0.491-0.171-0.749-0.23
		c-0.106-0.029-0.217-0.056-0.33-0.075c-0.361-0.065-0.728-0.111-1.106-0.111H83.633c-3.392,0-6.14,2.748-6.14,6.141
		s2.748,6.142,6.14,6.142h11.783L71.596,40.13c-7.323-8.31-18.005-13.589-29.925-13.589c-22.008,0-39.913,17.91-39.913,39.915
		c0,19.914,14.677,36.423,33.773,39.392v14.854H24.273c-3.39,0-6.141,2.746-6.141,6.141c0,3.389,2.751,6.14,6.141,6.14h11.258
		v12.282c0,3.389,2.751,6.141,6.143,6.141c3.391,0,6.141-2.752,6.141-6.141V132.98h13.304c3.393,0,6.142-2.752,6.142-6.141
		c0-3.396-2.749-6.141-6.142-6.141H47.813v-14.854c19.097-2.969,33.772-19.477,33.772-39.39c0-5.581-1.159-10.892-3.233-15.717
		l25.751-25.75v11.785c0,3.395,2.752,6.143,6.141,6.143c3.393,0,6.141-2.752,6.141-6.143V10.167
		C116.384,10.102,116.367,10.043,116.366,9.978z M41.671,94.089c-15.235,0-27.632-12.396-27.632-27.633
		c0-15.239,12.396-27.634,27.632-27.634c15.237,0,27.633,12.395,27.633,27.634C69.304,81.693,56.908,94.089,41.671,94.089z"/>
	<rect x="22.229" y="69.527" fill="#00A0B0" width="38.888" height="8.188"/>
	<rect x="22.229" y="57.246" fill="#00A0B0" width="38.888" height="8.188"/>
</g>
<g>
	
		<path fill="#808080" stroke="#666666" stroke-width="18.9003" stroke-linecap="round" stroke-linejoin="round" stroke-miterlimit="10" d="
		M148.929,11.875l7.575,32.854l1.65,9.144l1.654-8.957l6.479-33.041h12.651l6.816,32.849l1.745,9.148l1.772-8.793l7.648-33.205
		h12.205l-16.14,57.372h-11.479l-6.928-33.551l-2.023-11.093l-2.024,11.093l-6.928,33.551h-11.135l-16.268-57.372H148.929z"/>
	
		<path fill="#808080" stroke="#666666" stroke-width="18.9003" stroke-linecap="round" stroke-linejoin="round" stroke-miterlimit="10" d="
		M216.283,69.247V11.875h11.91V33.75h22.304V11.875h11.909v57.372h-11.909v-25.61h-22.304v25.61H216.283z"/>
	
		<path fill="#808080" stroke="#666666" stroke-width="18.9003" stroke-linecap="round" stroke-linejoin="round" stroke-miterlimit="10" d="
		M306.662,11.875h13.584l-19.19,35.859v21.513h-11.987V47.734l-19.851-35.859h14.13l11.91,24.988L306.662,11.875z"/>
</g>
<g>
	
		<path fill="#808080" stroke="#666666" stroke-width="18.9003" stroke-linecap="round" stroke-linejoin="round" stroke-miterlimit="10" d="
		M148.929,81.102l7.575,32.854l1.65,9.143l1.654-8.955l6.479-33.041h12.651l6.816,32.849l1.745,9.147l1.772-8.791l7.648-33.205
		h12.205l-16.14,57.371h-11.479l-6.928-33.551l-2.023-11.094l-2.024,11.094l-6.928,33.551h-11.135l-16.268-57.371H148.929z"/>
	
		<path fill="#808080" stroke="#666666" stroke-width="18.9003" stroke-linecap="round" stroke-linejoin="round" stroke-miterlimit="10" d="
		M260.538,133.374c-4.332,4.464-10.6,6.694-18.8,6.694c-8.198,0-14.467-2.23-18.8-6.694c-5.812-5.475-8.717-13.364-8.717-23.665
		c0-10.51,2.905-18.396,8.717-23.664c4.333-4.463,10.602-6.695,18.8-6.695c8.2,0,14.468,2.232,18.8,6.695
		c5.785,5.268,8.68,13.154,8.68,23.664C269.218,120.01,266.323,127.899,260.538,133.374z M253.047,124.654
		c2.787-3.502,4.184-8.484,4.184-14.945c0-6.436-1.396-11.41-4.184-14.927c-2.791-3.517-6.559-5.274-11.309-5.274
		c-4.748,0-8.537,1.752-11.365,5.255c-2.827,3.503-4.242,8.485-4.242,14.946s1.415,11.443,4.242,14.945
		c2.828,3.504,6.617,5.256,11.365,5.256C246.488,129.91,250.256,128.158,253.047,124.654z"/>
	
		<path fill="#808080" stroke="#666666" stroke-width="18.9003" stroke-linecap="round" stroke-linejoin="round" stroke-miterlimit="10" d="
		M286.169,81.102l7.575,32.854l1.649,9.143l1.653-8.955l6.48-33.041h12.65l6.816,32.849l1.746,9.147l1.771-8.791l7.648-33.205
		h12.205l-16.14,57.371h-11.48l-6.927-33.551l-2.023-11.094l-2.025,11.094l-6.927,33.551h-11.134L273.44,81.102H286.169z"/>
</g>
<g>
	<path fill="#FFFFFF" d="M148.929,11.875l7.575,32.854l1.65,9.144l1.654-8.957l6.479-33.041h12.651l6.816,32.849l1.745,9.148
		l1.772-8.793l7.648-33.205h12.205l-16.14,57.372h-11.479l-6.928-33.551l-2.023-11.093l-2.024,11.093l-6.928,33.551h-11.135
		l-16.268-57.372H148.929z"/>
	<path fill="#FFFFFF" d="M216.283,69.247V11.875h11.91V33.75h22.304V11.875h11.909v57.372h-11.909v-25.61h-22.304v25.61H216.283z"/>
	<path fill="#FFFFFF" d="M306.662,11.875h13.584l-19.19,35.859v21.513h-11.987V47.734l-19.851-35.859h14.13l11.91,24.988
		L306.662,11.875z"/>
</g>
<g>
	<path fill="#FFFFFF" d="M148.929,81.102l7.575,32.854l1.65,9.143l1.654-8.955l6.479-33.041h12.651l6.816,32.849l1.745,9.147
		l1.772-8.791l7.648-33.205h12.205l-16.14,57.371h-11.479l-6.928-33.551l-2.023-11.094l-2.024,11.094l-6.928,33.551h-11.135
		l-16.268-57.371H148.929z"/>
	<path fill="#FFFFFF" d="M260.538,133.374c-4.332,4.464-10.6,6.694-18.8,6.694c-8.198,0-14.467-2.23-18.8-6.694
		c-5.812-5.475-8.717-13.364-8.717-23.665c0-10.51,2.905-18.396,8.717-23.664c4.333-4.463,10.602-6.695,18.8-6.695
		c8.2,0,14.468,2.232,18.8,6.695c5.785,5.268,8.68,13.154,8.68,23.664C269.218,120.01,266.323,127.899,260.538,133.374z
		 M253.047,124.654c2.787-3.502,4.184-8.484,4.184-14.945c0-6.436-1.396-11.41-4.184-14.927c-2.791-3.517-6.559-5.274-11.309-5.274
		c-4.748,0-8.537,1.752-11.365,5.255c-2.827,3.503-4.242,8.485-4.242,14.946s1.415,11.443,4.242,14.945
		c2.828,3.504,6.617,5.256,11.365,5.256C246.488,129.91,250.256,128.158,253.047,124.654z"/>
	<path fill="#FFFFFF" d="M286.169,81.102l7.575,32.854l1.649,9.143l1.653-8.955l6.48-33.041h12.65l6.816,32.849l1.746,9.147
		l1.771-8.791l7.648-33.205h12.205l-16.14,57.371h-11.48l-6.927-33.551l-2.023-11.094l-2.025,11.094l-6.927,33.551h-11.134
		L273.44,81.102H286.169z"/>
</g>
</svg>
